<?xml version="1.0" standalone="no"?>
<!DOCTYPE svg PUBLIC "-//W3C//DTD SVG 1.1//EN" "http://www.w3.org/Graphics/SVG/1.1/DTD/svg11.dtd" >
<svg xmlns="http://www.w3.org/2000/svg">
<metadata>Generated by IcoMoon</metadata>
<defs>
<font id="icomoon" horiz-adv-x="1024">
<font-face units-per-em="1024" ascent="960" descent="-64" />
<missing-glyph horiz-adv-x="1024" />
<glyph unicode="&#x20;" horiz-adv-x="512" d="" />
<glyph unicode="&#xe900;" glyph-name="Audience" d="M477.164 350.894c-3.277 24.883-18.944 46.285-41.677 57.037l-116.941 55.398c-10.342-35.635-35.226-65.126-68.608-81.51-33.382 16.282-58.266 45.875-68.608 81.51l-116.941-55.398c-22.63-10.752-38.298-32.154-41.677-57.037l-23.040-173.056h500.531l-23.040 173.056zM161.772 592.251l3.789-26.624c1.229-8.499 8.397-14.95 16.998-15.258v-0.307c9.114-65.331 58.675-68.198 66.355-68.198h2.253c7.68 0 57.242 2.97 66.355 68.198v0.307c8.806 0.102 16.179 6.554 17.408 15.258l3.789 26.624c1.024 7.27-2.458 14.438-8.909 18.022 3.482 16.486 5.427 33.178 5.939 49.971-0.307 31.744-28.877 64.512-66.662 68.198l-13.107 17.101c-91.955-4.301-91.443-79.462-91.443-79.462v-9.216c0.717-15.77 2.662-31.334 5.939-46.797-6.144-3.584-9.626-10.65-8.704-17.818zM1001.042 350.894c-3.277 24.883-18.944 46.285-41.677 57.037l-116.941 55.398c-10.342-35.635-35.226-65.126-68.608-81.51-33.382 16.282-58.266 45.875-68.608 81.51l-116.941-55.398c-22.63-10.752-38.298-32.154-41.677-57.037l-23.040-173.056h500.224l-22.733 173.056zM685.65 592.251l3.789-26.624c1.229-8.499 8.397-14.95 16.998-15.258v-0.307c9.114-65.331 58.675-68.198 66.355-68.198h2.253c7.68 0 57.242 2.97 66.355 68.198v0.307c8.806 0.102 16.179 6.554 17.408 15.258l3.789 26.624c1.024 7.27-2.458 14.438-8.909 18.022 3.482 16.486 5.427 33.178 5.939 49.971-0.307 31.744-28.877 64.512-66.662 68.198l-13.107 17.101c-91.955-4.301-91.443-79.462-91.443-79.462v-9.216c0.717-15.77 2.662-31.334 5.939-46.797-6.144-3.584-9.728-10.65-8.704-17.818v0zM729.17 344.852c-5.222 26.931-23.347 49.664-48.435 60.723l-100.147 43.725c-1.024-5.325-13.722-67.482-70.042-101.478-56.422 34.099-69.12 96.154-70.042 101.478l-100.25-43.725c-25.19-11.059-43.315-33.792-48.435-60.723l-41.779-217.293h90.112l25.395 131.891 24.781-131.891h240.333l24.678 131.891 25.395-131.891h90.112l-41.677 217.293zM460.37 505.416c-9.318 13.21-16.179 27.853-20.378 43.418-12.288 2.662-21.709 12.595-23.654 25.088l-2.97 21.299c-1.434 10.957 6.144 21.094 16.998 22.733-0.307 11.059 0 18.022 0 18.022 0.307 11.366 2.355 49.050 40.038 65.126 0.41-45.773 37.683-82.739 83.456-82.842h16.691c10.138 0 18.739-7.578 20.070-17.715-1.024-32.768-8.397-90.522-46.387-112.538h66.765c19.661 32.768 30.003 92.16 30.003 130.15 0 89.805-45.363 131.174-111.206 131.174l-15.053 19.046c-61.747 0-134.554-39.731-134.554-140.186 0.102-44.646 18.125-102.707 80.179-122.778z" />
<glyph unicode="&#xe901;" glyph-name="Back" d="M1022.362 451.789v-111.821h-804.045l202.342-205.005-79.872-79.872-340.787 340.787 340.787 340.787 79.872-79.872-202.342-205.005h804.045z" />
<glyph unicode="&#xe902;" glyph-name="Checkbox_01" d="M909.517 958.464c31.949 0 58.982-11.059 81.203-33.28 22.118-22.221 33.28-49.254 33.28-81.203v-793.088c0-31.949-11.059-58.982-33.28-81.203s-49.254-33.28-81.203-33.28h-792.986c-31.949 0-58.982 11.059-81.203 33.28-22.221 22.118-33.28 49.254-33.28 81.203v793.19c0 31.949 11.059 58.982 33.28 81.203 22.118 22.118 49.254 33.28 81.203 33.28h792.986zM398.643 162.714l510.976 510.976-79.872 82.534-431.104-431.104-202.24 202.24-79.872-79.872 282.112-284.774z" />
<glyph unicode="&#xe903;" glyph-name="Checkbox" d="M912.384 960.819c31.949 0 59.085-11.162 81.306-33.382s33.28-49.357 33.28-81.306v-794.624c0-31.949-11.162-59.085-33.28-81.306-22.221-22.221-49.357-33.28-81.306-33.28h-794.624c-31.949 0-59.085 11.059-81.306 33.28s-33.382 49.357-33.382 81.306v794.624c0 31.949 11.059 59.085 33.382 81.306 22.118 22.323 49.254 33.382 81.306 33.382h794.624zM912.384 846.131h-794.624v-794.624h794.624v794.624z" />
<glyph unicode="&#xe904;" glyph-name="Close" d="M1019.904 853.606l-409.395-405.914 409.395-405.914-102.298-102.298-409.395 405.914-405.914-405.914-102.298 102.298 405.914 405.914-405.914 405.914 102.298 102.298 405.914-405.914 409.293 405.914 102.4-102.298z" />
<glyph unicode="&#xe905;" glyph-name="Comment-Outline" d="M1015.808-69.12l-221.184 221.184h-659.456c-32.768 0-61.44 11.264-83.968 34.816-22.528 22.528-34.816 51.2-34.816 83.968v572.416c0 30.72 11.264 58.368 34.816 81.92 22.528 22.528 51.2 34.816 83.968 34.816h762.88c32.768 0 61.44-11.264 83.968-34.816 22.528-22.528 34.816-50.176 34.816-81.92v-912.384zM135.168 914.944c-20.48 0-37.888-7.168-52.224-21.504-15.36-14.336-21.504-30.72-21.504-50.176v-572.416c0-20.48 7.168-37.888 21.504-52.224s31.744-21.504 52.224-21.504h677.888l158.72-158.72v804.864c0 19.456-7.168 35.84-21.504 50.176s-31.744 21.504-52.224 21.504h-762.88zM777.216 485.888h-138.24v140.288h138.24v-140.288zM683.008 529.92h50.176v51.2h-50.176v-51.2zM586.752 485.888h-140.288v140.288h140.288v-140.288zM490.496 529.92h52.224v51.2h-52.224v-51.2zM396.288 485.888h-140.288v140.288h140.288v-140.288zM300.032 529.92h52.224v51.2h-52.224v-51.2z" />
<glyph unicode="&#xe906;" glyph-name="Comment-01" d="M1022.054 859.034l2.355-921.293-206.336 203.981h-714.854c-28.774 0-53.146 9.933-73.216 30.003-20.070 19.968-30.003 44.339-30.003 73.114v614.195c0 27.238 9.933 50.79 30.003 70.758 19.968 19.968 44.339 30.003 73.216 30.003h818.074c28.774 0 52.736-10.035 71.987-30.003 19.149-19.968 28.774-43.52 28.774-70.758z" />
<glyph unicode="&#xe907;" glyph-name="Communications" d="M225.382 861.798c-9.318 9.318-24.474 9.318-33.894 0 0 0 0 0 0 0-84.275-84.275-84.275-220.877 0-305.152v0c9.011-9.728 24.166-10.24 33.894-1.229s10.24 24.166 1.229 33.894c-0.41 0.41-0.819 0.819-1.229 1.229-65.536 65.536-65.536 171.827 0 237.363 9.318 9.318 9.318 24.474 0 33.894zM134.861 918.221c9.728 9.011 10.24 24.166 1.229 33.894s-24.166 10.24-33.894 1.229c-0.512-0.41-0.922-0.819-1.229-1.229-134.042-134.246-134.042-351.744 0-485.99 9.011-9.728 24.166-10.24 33.894-1.229s10.24 24.166 1.229 33.894v0c-0.41 0.41-0.819 0.819-1.229 1.229-115.302 115.61-115.2 302.694 0.205 418.202h-0.205zM550.4 671.437h57.549v-63.898c0-17.613 14.336-31.949 31.949-31.949v0h31.949v255.693h-31.846c-17.613 0-31.949-14.336-31.949-31.949v0-63.898h-63.898v64c0 17.613-14.336 31.949-31.949 31.949s-31.949-14.336-31.949-31.949v-63.898h-63.898v63.898c0 17.613-14.336 31.949-31.949 31.949v0h-32.154v-255.795h31.949c17.613 0 31.949 14.336 31.949 31.949v0 63.898h57.242l-176.333-705.434c-3.174-12.8 4.608-25.805 17.408-29.082 12.8-3.174 25.805 4.608 29.082 17.408l13.517 53.965 266.957 172.954 31.949-127.898-99.635 64.717-67.994-44.134v-113.766c0-13.005 10.342-23.654 23.347-23.962h1.331c13.005 0.307 23.347 10.957 23.347 23.962v133.222l131.072-85.197 13.517-53.965c3.174-12.8 16.179-20.685 29.082-17.408s20.685 16.179 17.408 29.082v0l-177.050 705.536zM535.654 532.685l38.298-153.395-38.298-24.883v178.278zM487.731 532.685v-178.278l-38.298 24.883 38.298 153.395zM441.549 346.419l41.165-26.624-57.037-37.274 15.872 63.898zM368.23 53.76l31.949 127.898 82.432-53.248-114.381-74.65zM488.038 162.611l-79.565 51.712 5.734 23.040 168.346 109.158 15.974-63.898-42.598 27.546-67.994-44.134 0.102-103.424zM536.064 162.611v122.573l73.83-47.923 5.734-22.938-79.565-51.712zM923.034 952.115c-9.318 9.318-24.576 9.318-33.894 0s-9.318-24.576 0-33.894v0c115.302-115.507 115.302-302.694 0-418.202-9.626-9.011-10.138-24.269-1.126-33.894s24.269-10.138 33.894-1.126v0c0.41 0.41 0.819 0.819 1.229 1.229 133.939 134.246 133.939 351.642-0.102 485.888v0zM832.512 861.491c-9.318 9.318-24.576 9.318-33.894 0s-9.318-24.576 0-33.894v0c65.536-65.536 65.536-171.827 0-237.363-9.728-9.011-10.24-24.166-1.229-33.894s24.166-10.24 33.894-1.229c0.41 0.41 0.819 0.819 1.229 1.229 84.275 84.275 84.275 220.877 0 305.152v0z" />
<glyph unicode="&#xe908;" glyph-name="Download" d="M934.195 597.402l-423.014-420.147-420.147 420.147h239.718v360.96h360.96v-360.96h242.483zM91.034 56.013h843.162v-121.242h-843.162v121.242z" />
<glyph unicode="&#xe909;" glyph-name="Favourite-Outline" d="M514.048-31.232l-84.992 76.8c-65.536 59.392-111.616 101.376-142.336 130.048s-67.584 65.536-110.592 112.64c-44.032 47.104-74.752 84.992-95.232 114.688-19.456 29.696-37.888 64.512-52.224 103.424-15.36 39.936-23.552 79.872-23.552 118.784 0 79.872 28.672 149.504 83.968 205.824 56.32 56.32 124.928 83.968 205.824 83.968 87.040 0 160.768-30.72 220.16-92.16 59.392 61.44 133.12 92.16 220.16 92.16 81.92 0 151.552-28.672 207.872-83.968 56.32-56.32 83.968-124.928 83.968-205.824 0-38.912-8.192-78.848-24.576-118.784-15.36-37.888-32.768-72.704-52.224-103.424s-50.176-68.608-95.232-115.712c-44.032-46.080-80.896-83.968-110.592-111.616-29.696-28.672-77.824-72.704-143.36-132.096l-87.040-74.752zM293.888 871.936c-69.632 0-126.976-23.552-175.104-71.68s-71.68-105.472-71.68-175.104c0-33.792 7.168-68.608 20.48-103.424 14.336-35.84 29.696-68.608 48.128-95.232 18.432-27.648 49.152-64.512 90.112-109.568 41.984-45.056 78.848-81.92 108.544-109.568 30.72-28.672 76.8-70.656 142.336-129.024l57.344-51.2 56.32 49.152c64.512 59.392 112.64 103.424 142.336 131.072 28.672 27.648 65.536 64.512 109.568 110.592 41.984 45.056 72.704 80.896 90.112 108.544s33.792 60.416 49.152 96.256c14.336 33.792 21.504 68.608 21.504 102.4 0 69.632-23.552 126.976-71.68 175.104s-106.496 71.68-177.152 71.68c-82.944 0-149.504-31.744-203.776-95.232l-16.384-19.456-16.384 19.456c-54.272 63.488-120.832 95.232-203.776 95.232z" />
<glyph unicode="&#xe90a;" glyph-name="Favourite" d="M508.723-38.605l-74.65 67.379c-67.379 61.030-117.248 106.291-149.299 136.090-32.154 29.696-70.656 68.608-115.61 116.838-44.954 48.128-77.414 87.45-97.485 117.965s-37.786 65.434-52.941 104.755c-15.258 39.322-22.835 78.234-22.835 116.736 0 78.643 27.238 145.306 81.92 199.885 54.579 54.579 121.139 81.92 199.885 81.92 93.082 0 170.086-36.147 231.117-108.339 60.826 72.192 137.933 108.237 231.014 108.237 80.282 0 147.661-27.341 202.24-81.92 54.579-54.477 81.92-121.139 81.92-199.782 0-38.502-8.090-77.414-24.064-116.736-16.077-39.322-33.69-74.24-52.941-104.755s-51.712-69.837-97.485-117.965c-45.773-48.128-84.275-87.142-115.61-116.838s-81.51-75.878-150.528-138.445l-74.65-65.024z" />
<glyph unicode="&#xe90b;" glyph-name="Group-382" d="M507.064 104.96h-356.352c-18.432 0-33.792 15.36-33.792 34.816v307.2h-74.752c-15.36 0-28.672 10.24-32.768 24.576s1.024 29.696 13.312 37.888l467.968 362.496c12.288 9.216 29.696 9.216 41.984 0l468.992-362.496c15.36-11.264 17.408-32.768 6.144-48.128-6.144-8.192-16.384-13.312-26.624-13.312h-70.656v-99.328l-19.456 27.648c-72.704 107.52-218.112 136.192-325.632 63.488-105.472-70.656-135.168-211.968-68.608-318.464l10.24-16.384zM512.184 857.6c-3.072 0-5.12-1.024-8.192-3.072l-467.968-361.472c-5.12-4.096-7.168-9.216-5.12-15.36 1.024-5.12 6.144-9.216 11.264-9.216h95.232v-329.728c0-7.168 6.144-13.312 12.288-13.312h318.464c-65.536 124.928-17.408 280.576 108.544 346.112 104.448 54.272 233.472 30.72 311.296-58.368v55.296h92.16c5.12 0 10.24 3.072 12.288 9.216 2.048 5.12 0 11.264-4.096 14.336v0l-468.992 362.496c-2.048 2.048-5.12 3.072-7.168 3.072v0zM523.448 95.744h-372.736c-23.552 0-43.008 19.456-43.008 43.008v300.032h-65.536c-19.456 0-35.84 12.288-40.96 30.72s1.024 36.864 16.384 48.128l467.968 360.448c15.36 12.288 37.888 12.288 53.248 0l468.992-362.496c9.216-7.168 15.36-17.408 16.384-28.672s-2.048-22.528-9.216-31.744c-8.192-10.24-20.48-16.384-33.792-16.384h-61.44v-119.808l-35.84 53.248c-69.632 103.424-209.92 131.072-313.344 61.44-49.152-32.768-82.944-82.944-95.232-140.288s-2.048-116.736 29.696-166.912l18.432-30.72zM115.896 456.192h9.216v-317.44c0-14.336 11.264-25.6 25.6-25.6h340.992l-2.048 3.072c-33.792 54.272-45.056 117.76-31.744 180.224s49.152 115.712 102.4 151.552c111.616 74.752 263.168 45.056 337.92-66.56l3.072-5.12v79.872h78.848c8.192 0 15.36 4.096 20.48 10.24 4.096 5.12 6.144 12.288 5.12 18.432-1.024 7.168-4.096 12.288-9.216 17.408l-468.992 362.496c-9.216 7.168-22.528 7.168-31.744 0l-466.944-361.472c-9.216-6.144-13.312-17.408-10.24-28.672s13.312-18.432 24.576-18.432h72.704zM484.536 117.248h-333.824c-12.288 0-21.504 10.24-21.504 21.504v321.536h-87.040c-9.216 0-18.432 6.144-20.48 15.36-3.072 9.216 1.024 19.456 9.216 24.576l467.968 361.472c3.072 3.072 8.192 4.096 13.312 4.096v0c0 0 0 0 0 0 5.12 0 9.216-2.048 13.312-5.12l468.992-361.472c7.168-5.12 10.24-15.36 7.168-23.552-3.072-9.216-11.264-14.336-20.48-14.336 0 0 0 0 0 0h-82.944v-69.632l-15.36 17.408c-75.776 86.016-198.656 108.544-300.032 56.32-58.368-30.72-101.376-81.92-121.856-145.408-20.48-64.512-14.336-131.072 16.384-189.44l7.168-13.312zM137.4 477.696h9.216v-338.944c0-2.048 2.048-4.096 4.096-4.096h305.152c-27.648 59.392-31.744 125.952-11.264 189.44 21.504 67.584 67.584 122.88 130.048 155.648 102.4 53.248 225.28 34.816 306.176-44.032v41.984h100.352c0 0 0 0 0 0 2.048 0 3.072 1.024 3.072 3.072v0c0 1.024 0 3.072-1.024 4.096l-468.992 362.496c-1.024 0-1.024 1.024-2.048 1.024 0 0 0 0 0 0v0 0c-1.024 0-2.048 0-2.048-1.024l-468.992-361.472h-1.024c-1.024-1.024-2.048-3.072-2.048-4.096v0c0-1.024 2.048-2.048 3.072-2.048l96.256-2.048zM697.405 17.111c-62.464 0-116.736 22.528-160.768 66.56s-66.56 98.304-66.56 160.768 22.528 116.736 66.56 160.768c44.032 44.032 98.304 66.56 160.768 66.56s116.736-22.528 160.768-66.56c44.032-44.032 66.56-98.304 66.56-160.768s-22.528-116.736-66.56-160.768-98.304-66.56-160.768-66.56zM697.405 450.263c-109.568-2.048-196.608-92.16-194.56-201.728s92.16-196.608 201.728-194.56c109.568 2.048 196.608 92.16 194.56 201.728-1.024 78.848-49.152 149.504-122.88 180.224-24.576 9.216-51.2 14.336-78.848 14.336v0zM697.405 77.527c-56.32 0-108.544 27.648-139.264 74.752l-2.048 3.072v3.072c1.024 17.408 11.264 31.744 29.696 44.032 17.408 11.264 35.84 19.456 56.32 24.576 35.84 10.24 74.752 10.24 110.592 0 19.456-5.12 38.912-13.312 56.32-24.576 19.456-12.288 28.672-27.648 28.672-45.056v-3.072l-2.048-3.072c-15.36-22.528-34.816-41.984-59.392-55.296v0c-23.552-12.288-51.2-18.432-78.848-18.432v0zM578.621 160.471c27.648-38.912 71.68-62.464 119.808-62.464 24.576 0 48.128 6.144 68.608 17.408v0c19.456 11.264 36.864 26.624 49.152 45.056-1.024 8.192-7.168 16.384-18.432 24.576-15.36 10.24-31.744 17.408-49.152 21.504-32.768 9.216-67.584 9.216-100.352 0-17.408-4.096-34.816-12.288-49.152-21.504-12.288-7.168-19.456-15.36-20.48-24.576v0zM697.405 254.679c-41.984 0-75.776 33.792-75.776 75.776 0 20.48 8.192 39.936 22.528 53.248 14.336 14.336 33.792 22.528 53.248 21.504 40.96 0 74.752-32.768 74.752-74.752 0 0 0 0 0-1.024 0-20.48-7.168-39.936-21.504-53.248-13.312-13.312-32.768-21.504-53.248-21.504v0zM651.325 376.535l7.168-8.192c-10.24-10.24-16.384-23.552-16.384-37.888 0-29.696 24.576-54.272 54.272-54.272 14.336 0 28.672 5.12 37.888 16.384 10.24 10.24 16.384 24.576 15.36 38.912 0 29.696-23.552 53.248-53.248 53.248 0 0 0 0-1.024 0-14.336 0-28.672-5.12-38.912-15.36l-5.12 7.168zM697.405 8.919c-65.536 0-120.832 23.552-166.912 69.632s-69.632 102.4-69.632 166.912c0 64.512 23.552 120.832 69.632 166.912s102.4 69.632 166.912 69.632c64.512 0 120.832-23.552 166.912-69.632s69.632-102.4 69.632-166.912c0-64.512-23.552-120.832-69.632-166.912-45.056-47.104-101.376-69.632-166.912-69.632zM697.405 462.551c-60.416 0-112.64-21.504-154.624-64.512-41.984-41.984-64.512-94.208-64.512-154.624 0-59.392 21.504-111.616 64.512-154.624 41.984-41.984 94.208-64.512 154.624-64.512s112.64 21.504 154.624 64.512c41.984 41.984 64.512 94.208 64.512 154.624 0 59.392-21.504 111.616-64.512 154.624-41.984 43.008-94.208 64.512-154.624 64.512zM701.501 44.759c-112.64 0-204.8 90.112-206.848 203.776-1.024 55.296 19.456 107.52 58.368 147.456s90.112 62.464 145.408 63.488v0c28.672 0 56.32-5.12 82.944-15.36 76.8-31.744 126.976-105.472 128-187.392 1.024-55.296-19.456-107.52-58.368-147.456s-90.112-62.464-145.408-63.488c-2.048-1.024-3.072-1.024-4.096-1.024zM697.405 441.047c-50.176-1.024-97.28-21.504-133.12-57.344-34.816-36.864-54.272-83.968-53.248-135.168 2.048-103.424 86.016-186.368 189.44-186.368 1.024 0 2.048 0 3.072 0 50.176 1.024 98.304 21.504 133.12 57.344 34.816 36.864 54.272 83.968 53.248 135.168-1.024 75.776-47.104 143.36-116.736 172.032-23.552 10.24-49.152 14.336-75.776 14.336v0zM698.429 68.311c0 0-1.024 0-1.024 0v0c0 0 0 0 0 0-59.392 0-113.664 29.696-146.432 78.848l-3.072 5.12v6.144c1.024 20.48 12.288 36.864 33.792 51.2 18.432 12.288 37.888 20.48 58.368 25.6 37.888 11.264 77.824 11.264 115.712 0 20.48-5.12 39.936-14.336 58.368-25.6 21.504-14.336 32.768-31.744 32.768-52.224v-6.144l-3.072-5.12c-15.36-23.552-36.864-44.032-62.464-57.344s-53.248-20.48-82.944-20.48zM697.405 85.719v0c0 0 1.024 0 1.024 0 25.6 0 51.2 6.144 73.728 19.456 22.528 12.288 41.984 30.72 56.32 52.224v0 1.024c0 14.336-8.192 26.624-24.576 37.888-16.384 10.24-34.816 18.432-53.248 23.552-34.816 10.24-71.68 10.24-106.496 0-19.456-5.12-36.864-13.312-53.248-23.552-16.384-11.264-24.576-23.552-25.6-37.888v-2.048c29.696-44.032 78.848-70.656 132.096-70.656 0 0 0 0 0 0v0zM698.429 89.815c-1.024 0-1.024 0-2.048 0-50.176 0-97.28 24.576-125.952 65.536l-2.048 3.072 1.024 4.096c2.048 11.264 10.24 21.504 23.552 29.696 16.384 10.24 33.792 18.432 52.224 23.552 34.816 10.24 70.656 10.24 104.448 0 18.432-5.12 35.84-12.288 52.224-23.552 13.312-9.216 21.504-19.456 22.528-30.72v-3.072l-2.048-3.072c-13.312-19.456-31.744-35.84-52.224-47.104-21.504-12.288-46.080-18.432-71.68-18.432zM697.405 107.223c22.528 0 45.056 5.12 64.512 16.384 17.408 9.216 32.768 22.528 44.032 38.912-2.048 5.12-6.144 10.24-14.336 15.36-14.336 9.216-30.72 16.384-47.104 20.48v0c-30.72 9.216-64.512 9.216-95.232 0v0c-16.384-4.096-32.768-11.264-47.104-20.48-7.168-5.12-12.288-10.24-14.336-15.36 25.6-34.816 66.56-55.296 109.568-55.296 0 0 0 0 0 0zM698.429 246.487c0 0-1.024 0-1.024 0v0c-47.104 0-84.992 38.912-84.992 84.992 0 22.528 9.216 44.032 25.6 59.392 15.36 15.36 37.888 24.576 60.416 24.576 0 0 0 0 0 0 46.080 0 82.944-36.864 83.968-82.944v-1.024c0-22.528-8.192-44.032-24.576-60.416-15.36-15.36-36.864-24.576-59.392-24.576zM697.405 398.039c-17.408 0-34.816-7.168-47.104-19.456-13.312-12.288-20.48-29.696-19.456-47.104 0-36.864 30.72-67.584 67.584-67.584v0c17.408 0 34.816 7.168 47.104 19.456s19.456 29.696 19.456 47.104v1.024c0 35.84-29.696 65.536-66.56 65.536-1.024 1.024-1.024 1.024-1.024 1.024zM698.429 267.991c0 0-1.024 0-1.024 0-34.816 0-63.488 28.672-63.488 63.488 0 13.312 4.096 26.624 12.288 37.888l-2.048 2.048 12.288 12.288 2.048-2.048c11.264 8.192 24.576 12.288 37.888 12.288h1.024c34.816 0 62.464-28.672 61.44-62.464 0-16.384-6.144-32.768-18.432-45.056-9.216-12.288-25.6-18.432-41.984-18.432zM662.589 360.151c-7.168-8.192-11.264-18.432-11.264-28.672 0-25.6 20.48-46.080 46.080-46.080 12.288 0 23.552 4.096 31.744 13.312v0c8.192 8.192 13.312 20.48 13.312 31.744 0 24.576-19.456 45.056-44.032 45.056h-1.024c-11.264 0-21.504-4.096-29.696-10.24l-5.12-5.12z" />
<glyph unicode="&#xe90c;" glyph-name="Intro-2" d="M420.864 747.008c9.216 6.144 19.456 11.264 30.72 15.36 0 0 0 0 0 0 4.096 1.024 5.12 5.12 4.096 9.216 0 0 0 0 0 0-1.024 4.096-5.12 5.12-9.216 4.096-11.264-4.096-22.528-9.216-32.768-16.384 0 0 0 0 0 0-3.072-2.048-4.096-6.144-2.048-9.216 0-1.024 1.024-1.024 2.048-2.048 1.024-3.072 5.12-3.072 7.168-1.024zM326.656 258.56c0 0 0 0 0 0-4.096 1.024-7.168-1.024-9.216-4.096-7.168-21.504-12.288-44.032-15.36-67.584v-3.072c0-2.048 1.024-5.12 3.072-6.144v0c1.024-1.024 2.048-1.024 3.072-1.024 4.096 0 7.168 2.048 7.168 6.144v3.072c3.072 21.504 7.168 43.008 14.336 64.512 0 0 0 0 0 0 3.072 3.072 1.024 6.144-3.072 8.192zM335.872 285.184c0 0 1.024-1.024 1.024-1.024 3.072-2.048 7.168 0 9.216 3.072 10.24 21.504 20.48 41.984 33.792 61.44 2.048 3.072 1.024 7.168-2.048 9.216 0 0 0 0 0 0-3.072 2.048-7.168 1.024-9.216-2.048-13.312-20.48-24.576-40.96-34.816-62.464-1.024-2.048 0-6.144 2.048-8.192v0zM437.248 381.44c0 0 0 0 0 0 2.048 3.072 0 8.192-3.072 9.216-6.144 3.072-12.288 6.144-18.432 10.24 9.216 12.288 19.456 25.6 31.744 38.912 0 0 0 0 0 0 2.048 3.072 2.048 7.168-1.024 10.24-3.072 2.048-7.168 2.048-10.24-1.024-12.288-14.336-22.528-27.648-32.768-40.96-9.216 6.144-18.432 13.312-25.6 20.48 0 0 0 0 0 0-3.072 3.072-7.168 2.048-10.24 0-3.072-3.072-2.048-7.168 0-10.24 8.192-8.192 17.408-15.36 27.648-21.504-1.024-1.024-2.048-3.072-3.072-4.096-2.048-3.072-2.048-7.168 1.024-10.24v0c3.072-2.048 7.168-2.048 10.24 2.048 1.024 2.048 2.048 3.072 3.072 5.12 7.168-4.096 14.336-8.192 21.504-11.264 4.096-2.048 8.192-1.024 9.216 3.072zM348.16 36.352c-2.048 3.072-6.144 4.096-9.216 3.072-3.072-2.048-4.096-6.144-3.072-9.216 12.288-21.504 27.648-39.936 46.080-56.32 0 0 0 0 0 0 3.072-2.048 7.168-2.048 9.216 1.024 0 0 0 0 0 0 2.048 3.072 2.048 7.168-1.024 10.24-16.384 13.312-30.72 30.72-41.984 51.2zM316.416 140.8c0 0 0 0 0 0 0 4.096-4.096 7.168-7.168 6.144 0 0 0 0 0 0-4.096 0-7.168-4.096-6.144-7.168 2.048-24.576 7.168-48.128 15.36-70.656 0-1.024 1.024-2.048 2.048-3.072 2.048-1.024 4.096-2.048 6.144-1.024 0 0 0 0 0 0 4.096 1.024 5.12 5.12 4.096 9.216-8.192 20.48-13.312 43.008-14.336 66.56zM315.392 526.848c0 0 0 0 0 0-4.096-1.024-6.144-4.096-5.12-8.192 2.048-9.216 5.12-18.432 8.192-26.624 5.12-14.336 12.288-27.648 21.504-39.936 0-1.024 1.024-1.024 2.048-2.048v0c2.048-2.048 6.144-2.048 8.192 0 0 0 0 0 0 0 3.072 2.048 4.096 6.144 2.048 10.24-8.192 11.264-14.336 23.552-19.456 36.864-3.072 8.192-5.12 16.384-7.168 24.576-2.048 4.096-6.144 6.144-10.24 5.12zM312.32 555.52c4.096 0 7.168 3.072 7.168 7.168 0 22.528 4.096 46.080 11.264 67.584 0 0 0 0 0 0 1.024 4.096-1.024 7.168-4.096 9.216-4.096 1.024-7.168-1.024-9.216-4.096-8.192-23.552-11.264-47.104-11.264-71.68 0-2.048 1.024-4.096 3.072-5.12 0-3.072 2.048-3.072 3.072-3.072zM335.872 665.088c1.024 0 1.024 0 0 0 1.024 0 1.024 0 0 0 4.096-2.048 8.192-1.024 10.24 2.048 5.12 9.216 10.24 18.432 16.384 26.624 7.168 10.24 15.36 19.456 24.576 27.648 3.072 3.072 3.072 7.168 0 10.24 0 0 0 0 0 0-3.072 3.072-7.168 3.072-10.24 0-9.216-9.216-18.432-19.456-26.624-29.696-6.144-9.216-12.288-18.432-17.408-27.648 0-3.072 1.024-7.168 3.072-9.216v0zM638.976 412.16c-12.288-11.264-25.6-21.504-40.96-27.648-5.12-2.048-11.264-4.096-16.384-6.144 0 0 0 0 0 0-4.096-1.024-6.144-5.12-4.096-9.216 0-1.024 1.024-3.072 2.048-3.072 2.048-1.024 4.096-2.048 6.144-1.024 6.144 2.048 12.288 4.096 17.408 6.144 16.384 7.168 32.768 17.408 45.056 30.72 3.072 3.072 3.072 7.168 0 10.24-2.048 2.048-7.168 2.048-9.216 0zM668.672 512.512c-2.048 3.072-6.144 4.096-10.24 2.048-3.072-2.048-4.096-6.144-2.048-10.24 3.072-4.096 5.12-9.216 7.168-14.336 5.12-14.336 4.096-30.72-3.072-46.080-1.024-3.072 0-6.144 2.048-8.192 0 0 1.024-1.024 1.024-1.024 3.072-2.048 7.168 0 9.216 4.096 8.192 18.432 9.216 37.888 4.096 56.32-1.024 6.144-4.096 12.288-8.192 17.408zM627.712 528.896c3.072-2.048 7.168 0 9.216 3.072s0 7.168-3.072 9.216c-23.552 10.24-49.152 12.288-73.728 5.12 0 0 0 0 0 0-4.096-1.024-6.144-5.12-5.12-8.192 0-1.024 1.024-3.072 3.072-4.096v0c2.048-1.024 4.096-2.048 6.144-1.024 20.48 6.144 43.008 4.096 63.488-4.096zM465.92 470.528v0c3.072-2.048 7.168-2.048 9.216 1.024 18.432 20.48 34.816 34.816 51.2 45.056 0 0 0 0 0 0 3.072 2.048 4.096 6.144 2.048 9.216s-6.144 4.096-9.216 2.048c-17.408-11.264-34.816-26.624-54.272-48.128 0 0 0 0 0 0-3.072-2.048-3.072-6.144 1.024-9.216-1.024 0-1.024 0 0 0zM540.672 370.176c-22.528-2.048-46.080 0-67.584 6.144-4.096 1.024-7.168-1.024-8.192-5.12-1.024-3.072 0-6.144 3.072-7.168v0c1.024-1.024 1.024-1.024 2.048-1.024 23.552-6.144 48.128-8.192 72.704-6.144 0 0 0 0 0 0 4.096 0 7.168 4.096 6.144 7.168 0 0 0 0 0 0-1.024 3.072-4.096 6.144-8.192 6.144zM456.704-49.664c-11.264 2.048-21.504 6.144-31.744 11.264-3.072 2.048-7.168 0-9.216-3.072-1.024-3.072-1.024-6.144 2.048-8.192 0 0 1.024 0 1.024-1.024 11.264-5.12 22.528-9.216 34.816-12.288 0 0 0 0 0 0 4.096-1.024 7.168 1.024 8.192 5.12 1.024 3.072-1.024 7.168-5.12 8.192zM706.56 956.928l-305.152-30.72c-4.096 0-8.192-2.048-10.24-5.12-7.168-6.144-7.168-17.408 0-24.576l78.848-82.944 154.624 75.776c4.096 2.048 7.168-2.048 3.072-5.12l-137.216-104.448 39.936-106.496c1.024-4.096 4.096-7.168 7.168-9.216 8.192-5.12 19.456-3.072 24.576 5.12l160.768 261.12c7.168 12.288-2.048 27.648-16.384 26.624z" />
<glyph unicode="&#xe90d;" glyph-name="Filter" d="M429.056 449.024c0 8.192-3.072 16.384-9.216 21.504-6.144 6.144-13.312 9.216-21.504 9.216s-16.384-3.072-21.504-9.216c-6.144-6.144-9.216-13.312-9.216-21.504s3.072-15.36 9.216-21.504c5.12-5.12 12.288-9.216 21.504-9.216 17.408 0 30.72 13.312 30.72 30.72zM512 327.168c-17.408 0-30.72-13.312-30.72-30.72s13.312-30.72 30.72-30.72h1.024c16.384 1.024 29.696 14.336 29.696 30.72s-14.336 30.72-30.72 30.72zM625.664 571.904c16.384 0 30.72 13.312 30.72 30.72s-14.336 30.72-30.72 30.72h-1.024c-16.384-1.024-29.696-14.336-29.696-30.72 0-17.408 13.312-30.72 30.72-30.72zM512 960c-282.624 0-512-229.376-512-512s229.376-512 512-512 512 229.376 512 512-229.376 512-512 512zM279.552 613.888c3.072 3.072 6.144 4.096 10.24 4.096h277.504c5.12 22.528 23.552 39.936 46.080 44.032 15.36 3.072 31.744 0 45.056-9.216 12.288-8.192 21.504-20.48 25.6-35.84h49.152c4.096 0 8.192-2.048 10.24-4.096s4.096-6.144 4.096-10.24c0-8.192-6.144-14.336-14.336-14.336h-49.152c-5.12-22.528-23.552-39.936-46.080-44.032-5.12-1.024-8.192-1.024-12.288-1.024-27.648 0-51.2 18.432-58.368 46.080h-277.504c-4.096 0-8.192 2.048-10.24 4.096-3.072 3.072-4.096 6.144-4.096 10.24s2.048 8.192 4.096 10.24zM288.768 464.384h50.176c5.12 22.528 23.552 39.936 46.080 44.032 31.744 6.144 62.464-13.312 70.656-44.032h277.504c8.192 0 14.336-7.168 14.336-14.336 0-8.192-7.168-14.336-14.336-14.336h-277.504c-5.12-22.528-23.552-39.936-46.080-44.032-4.096-2.048-8.192-2.048-12.288-2.048-11.264 0-23.552 3.072-32.768 10.24-12.288 8.192-21.504 20.48-25.6 35.84h-50.176c-8.192 0-14.336 7.168-14.336 14.336 0 8.192 7.168 14.336 14.336 14.336zM734.208 282.112h-163.84c-5.12-22.528-23.552-39.936-46.080-44.032-5.12-2.048-9.216-2.048-12.288-2.048-11.264 0-23.552 3.072-32.768 10.24-12.288 8.192-21.504 20.48-25.6 35.84h-163.84c-8.192 0-14.336 6.144-14.336 14.336s7.168 14.336 14.336 14.336h163.84c5.12 22.528 23.552 39.936 46.080 44.032 31.744 6.144 62.464-13.312 70.656-44.032h163.84c8.192 0 14.336-7.168 14.336-14.336s-7.168-14.336-14.336-14.336z" />
<glyph unicode="&#xe90e;" glyph-name="Finance" d="M512 960c-282.726 0-512-229.274-512-512s229.274-512 512-512 512 229.274 512 512-229.274 512-512 512zM560.026 184.627v-72.602c0-8.806-7.168-15.974-15.974-15.974v0h-64c-8.806 0-15.974 7.168-15.974 15.974v0 70.246c-53.248 9.011-102.502 33.69-141.517 70.963-0.307 0.307-0.614 0.614-0.922 0.922-7.168 7.373-6.963 19.149 0.41 26.317 0 0 0 0 0.102 0.102l43.725 42.189c6.963 6.758 18.022 7.066 25.293 0.614 29.901-26.829 66.048-52.634 111.206-52.634 58.778 0 91.75 23.552 91.75 67.379 0 48.538-60.416 63.488-121.549 86.221-63.488 22.733-128.614 55.603-128.614 142.643 0 80.998 50.176 130.048 120.115 144.998v71.885c0 8.806 7.168 15.974 15.974 15.974h64c8.806 0 15.974-7.168 15.974-15.974v0-69.939c41.165-6.963 80.282-22.63 114.893-45.978 0.512-0.41 1.024-0.717 1.536-1.126 7.987-6.451 9.216-18.227 2.662-26.214 0 0 0 0-0.102-0.102l-37.683-46.285c-6.246-7.68-17.306-9.114-25.293-3.379-28.262 22.323-63.078 34.816-99.021 35.635-31.334 0-65.843-18.022-65.843-54.886s58.778-50.176 119.91-72.909c65.843-25.088 136.397-61.133 136.397-153.6 0.205-92.672-67.482-144.896-147.456-160.461v0z" />
<glyph unicode="&#xe90f;" glyph-name="Hamburger" d="M59.392 679.424c8.192 0 16.384 0 24.576 0 21.504 0 44.032 0 65.536 0 32.768 0 64.512 0 97.28 0 39.936 0 78.848 0 118.784 0 44.032 0 87.040 0 131.072 0s88.064 0 131.072 0c40.96 0 81.92 0 122.88 0 34.816 0 68.608 0 103.424 0 24.576 0 49.152 0 74.752 0 12.288 0 23.552 0 34.816 0 0 0 1.024 0 1.024 0 15.36 0 30.72 6.144 41.984 17.408 10.24 10.24 18.432 26.624 17.408 41.984s-6.144 30.72-17.408 41.984c-11.264 10.24-25.6 17.408-41.984 17.408-8.192 0-16.384 0-24.576 0-21.504 0-44.032 0-65.536 0-32.768 0-64.512 0-97.28 0-39.936 0-78.848 0-118.784 0-44.032 0-87.040 0-131.072 0s-88.064 0-131.072 0c-40.96 0-81.92 0-122.88 0-34.816 0-68.608 0-103.424 0-24.576 0-49.152 0-74.752 0-12.288 0-23.552 0-34.816 0 0 0-1.024 0-1.024 0-15.36 0-30.72-6.144-41.984-17.408-10.24-10.24-18.432-26.624-17.408-41.984s6.144-30.72 17.408-41.984c11.264-10.24 25.6-17.408 41.984-17.408v0zM59.392 371.2c22.528 0 45.056 0 66.56 0 53.248 0 106.496 0 159.744 0 64.512 0 129.024 0 194.56 0 55.296 0 111.616 0 166.912 0 26.624 0 54.272 0 80.896 0 0 0 1.024 0 1.024 0 15.36 0 30.72 6.144 41.984 17.408 10.24 10.24 18.432 26.624 17.408 41.984s-6.144 30.72-17.408 41.984c-11.264 10.24-25.6 17.408-41.984 17.408-22.528 0-45.056 0-66.56 0-53.248 0-106.496 0-159.744 0-64.512 0-129.024 0-194.56 0-55.296 0-111.616 0-166.912 0-26.624 0-54.272 0-80.896 0 0 0-1.024 0-1.024 0-15.36 0-30.72-6.144-41.984-17.408-10.24-10.24-18.432-26.624-17.408-41.984s6.144-30.72 17.408-41.984c11.264-10.24 25.6-17.408 41.984-17.408v0zM59.392 62.976c14.336 0 28.672 0 43.008 0 34.816 0 69.632 0 103.424 0 41.984 0 83.968 0 125.952 0 35.84 0 71.68 0 107.52 0 17.408 0 34.816 0 53.248 0 0 0 0 0 1.024 0 15.36 0 30.72 6.144 41.984 17.408 10.24 10.24 18.432 26.624 17.408 41.984s-6.144 30.72-17.408 41.984c-11.264 10.24-25.6 17.408-41.984 17.408-14.336 0-28.672 0-43.008 0-34.816 0-69.632 0-103.424 0-41.984 0-83.968 0-125.952 0-35.84 0-71.68 0-107.52 0-17.408 0-34.816 0-53.248 0 0 0 0 0-1.024 0-15.36 0-30.72-6.144-41.984-17.408-10.24-10.24-18.432-26.624-17.408-41.984s6.144-30.72 17.408-41.984c11.264-11.264 25.6-17.408 41.984-17.408v0z" />
<glyph unicode="&#xe910;" glyph-name="Healthcare" d="M247.398 464.998h-41.267v41.267c0 4.608-3.686 8.294-8.294 8.294h-32.973c-4.608 0-8.294-3.686-8.294-8.294v-41.267h-41.267c-4.608 0-8.294-3.686-8.294-8.294v-33.075c0-4.608 3.686-8.294 8.294-8.294h41.267v-41.267c0-4.608 3.686-8.294 8.294-8.294h33.075c4.608 0 8.294 3.686 8.294 8.294v41.267h41.267c4.608 0 8.294 3.686 8.294 8.294v33.075c-0.102 4.608-3.789 8.294-8.397 8.294zM363.418 737.587v66.048c0 4.608-3.686 8.294-8.294 8.294h-24.781v24.781c0 4.608-3.686 8.294-8.294 8.294h-280.781c-4.608 0-8.294-3.686-8.294-8.294v-24.781h-24.678c-4.608 0-8.294-3.686-8.294-8.294v-66.048c0-4.608 3.686-8.294 8.294-8.294h346.931c4.506 0 8.192 3.686 8.192 8.294 0 0 0 0 0 0zM1013.658 141.722l-262.246 471.962v231.219h8.397c13.722 0 24.781 11.059 24.781 24.781s-11.059 24.781-24.678 24.781c0 0 0 0-0.102 0h-264.294c-13.722 0-24.781-11.162-24.781-24.781s11.059-24.781 24.781-24.781h8.294v-231.219l-262.349-471.962c-22.118-39.834-7.782-90.112 32.154-112.333 12.288-6.861 26.214-10.445 40.243-10.342h627.712c45.568 0.102 82.534 37.069 82.432 82.739 0 13.926-3.584 27.648-10.342 39.936v0zM413.491 349.389l133.427 240.23 6.246 11.059v244.224h148.685v-244.122l6.246-11.059 133.427-240.23-428.032-0.102zM330.24 712.806h-297.165v-545.178l16.486-16.486h159.642c1.024 2.253 2.253 4.403 3.379 6.656l117.76 212.070-0.102 342.938zM181.35 324.608c-63.898 0-115.61 51.814-115.61 115.61s51.814 115.61 115.61 115.61c63.898 0 115.61-51.814 115.61-115.61 0 0 0 0 0 0 0-63.795-51.712-115.61-115.61-115.61z" />
<glyph unicode="&#xe911;" glyph-name="Home" d="M409.907 30.106h-255.59v408.576h-152.986l508.928 458.752 511.283-458.752h-152.883v-408.576h-255.59v305.869h-203.162v-305.869z" />
<glyph unicode="&#xe912;" glyph-name="Industry" d="M975.974-15.974v607.949l-192-128v128l-192-128v128l-192-128h-127.898l-16.077 319.898h-95.949l-15.974-320h-96.051v-479.949h-47.923v-47.923h1023.898v48.026h-48.026zM248.013 176.333h-111.923v64h112.026v-64zM248.013 288.256h-111.923v64h112.026v-64zM407.962 176.333h-111.923v64h112.026v-64zM407.962 288.256h-111.923v64h112.026v-64zM568.013 176.333h-112.026v64h112.026v-64zM568.013 288.256h-112.026v64h112.026v-64zM727.962 176.333h-112.026v64h112.026v-64zM727.962 288.256h-112.026v64h112.026v-64zM887.91 176.333h-111.923v64h112.026l-0.102-64zM887.91 288.256h-111.923v64h112.026l-0.102-64zM416.051 895.898c0.102 35.328-28.57 64-63.898 64.102-30.003 0.102-56.013-20.787-62.566-50.074-43.11 9.728-85.914-17.408-95.539-60.518-1.331-5.734-1.946-11.674-1.946-17.613h159.949c35.328 0.102 64 28.774 64 64.102z" />
<glyph unicode="&#xe913;" glyph-name="Media" d="M719.36 635.802h-412.058c-17.92-0.205-32.358-14.643-32.563-32.563v-628.838c0.102-17.92 14.541-32.461 32.563-32.563h411.955c17.92 0.102 32.461 14.541 32.563 32.563v628.941c-0.205 17.92-14.643 32.358-32.461 32.461zM529.613-36.352h-32.563c-9.011 0-16.282 7.27-16.282 16.282s7.27 16.282 16.282 16.282h32.563c9.011 0 16.282-7.27 16.282-16.282-0.102-9.011-7.373-16.282-16.282-16.282zM719.36 17.818h-412.058v552.96h411.955l0.102-552.96zM529.613 234.701h157.184v151.757h-157.184v-151.757zM529.613 50.381h157.184v151.757h-157.184v-151.757zM686.797 538.214h-346.931v-119.194h346.931v119.194zM497.050 386.458h-157.184v-336.077h157.184v336.077zM600.166 954.061h92.467c31.232 0 56.525-25.293 56.525-56.525v-92.467c0-31.232-25.293-56.525-56.525-56.525h-92.467c-31.232 0-56.525 25.293-56.525 56.525v92.467c0 31.13 25.293 56.525 56.525 56.525zM368.538 795.853h49.766c16.794 0 30.413-13.619 30.413-30.413v-49.766c0-16.794-13.619-30.413-30.413-30.413h-49.766c-16.794 0-30.413 13.619-30.413 30.413v49.766c-0.102 16.794 13.517 30.413 30.413 30.413zM891.494 653.619v63.283c0 8.704-7.066 15.77-15.77 15.77h-63.283c-8.704 0-15.77-7.066-15.77-15.77v-63.283c0-8.704 7.066-15.77 15.77-15.77h63.283c8.704-0.102 15.77 6.963 15.77 15.77zM338.022 859.136c8.704 0 15.77 7.066 15.77 15.77v63.283c0 8.704-7.066 15.77-15.77 15.77h-63.283c-8.704 0-15.77-7.066-15.77-15.77v-63.283c0-8.704 7.066-15.77 15.77-15.77h63.283zM181.453 479.642h28.467c9.626 0 17.408-7.782 17.408-17.408v-28.467c0-9.626-7.782-17.408-17.408-17.408h-28.467c-9.626 0-17.408 7.782-17.408 17.408v28.467c0 9.626 7.885 17.408 17.408 17.408zM893.133 859.136h28.467c9.626 0 17.408-7.782 17.408-17.408v-28.467c0-9.626-7.782-17.408-17.408-17.408h-28.467c-9.626 0-17.408 7.782-17.408 17.408v28.467c0 9.626 7.782 17.408 17.408 17.408zM149.914 827.494h28.467c9.626 0 17.408-7.782 17.408-17.408v-28.467c0-9.626-7.782-17.408-17.408-17.408h-28.467c-9.626 0-17.408 7.782-17.408 17.408v28.467c0 9.626 7.782 17.408 17.408 17.408zM76.698 701.030h64c21.606 0 39.117-17.51 39.117-39.117v-64c0-21.606-17.51-39.117-39.117-39.117h-64c-21.606 0-39.117 17.51-39.117 39.117v64c0 21.606 17.51 39.117 39.117 39.117zM883.302 574.464h64c21.606 0 39.117-17.51 39.117-39.117v-64c0-21.606-17.51-39.117-39.117-39.117h-64c-21.606 0-39.117 17.51-39.117 39.117v64c-0.102 21.606 17.408 39.117 39.117 39.117z" />
<glyph unicode="&#xe914;" glyph-name="Next" d="M0 451.789v-111.821h804.045l-202.342-205.005 79.872-79.872 340.787 340.787-340.787 340.787-79.872-79.872 202.342-205.005h-804.045z" />
<glyph unicode="&#xe915;" glyph-name="Owner" d="M301.875 288.666c75.981 18.022 145.408 27.034 208.384 27.034s132.403-9.011 208.384-27.034c75.981-18.022 145.408-47.514 208.384-88.474s94.413-87.45 94.413-139.469v-128.922h-1022.464v129.024c0 52.019 31.437 98.406 94.413 139.469s132.506 70.451 208.486 88.371zM691.61 519.578c-49.971-49.971-110.49-74.957-181.35-74.957s-131.379 24.986-181.35 74.957-74.957 110.49-74.957 181.35 24.986 131.379 74.957 181.35 110.387 75.059 181.35 75.059 131.379-24.986 181.35-74.957 74.957-110.49 74.957-181.35-24.986-131.482-74.957-181.453z" />
<glyph unicode="&#xe916;" glyph-name="Tick" d="M325.222 201.421l619.622 619.622 79.155-81.92-698.778-698.675-324.813 324.813 81.92 81.92 242.893-245.76z" />
<glyph unicode="&#xe917;" glyph-name="Play" d="M512 870.912c-233.472 0-422.912-189.44-422.912-422.912s189.44-422.912 422.912-422.912c233.472 0 422.912 189.44 422.912 422.912s-189.44 422.912-422.912 422.912zM418.816 257.536v378.88l297.984-189.44-297.984-189.44zM512 960c-282.624 0-512-229.376-512-512s229.376-512 512-512 512 229.376 512 512-229.376 512-512 512zM512-37.376c-267.264 0-485.376 218.112-485.376 485.376s218.112 485.376 485.376 485.376 485.376-218.112 485.376-485.376-218.112-485.376-485.376-485.376z" />
<glyph unicode="&#xe918;" glyph-name="Double_Tick" d="M0 368.026l61.952 61.952 245.658-245.658-61.952-61.952-245.658 245.658zM962.048 712.704l61.952-61.952-528.486-528.486-245.76 245.76 61.952 61.952 183.706-183.706 466.637 466.432zM774.144 650.854l-278.63-280.781-61.952 61.952 278.733 280.781 61.85-61.952z" />
<glyph unicode="&#xe919;" glyph-name="User_Preferences" d="M956.416 892.416c-43.008 44.032-102.4 67.584-163.84 67.584h-561.152c-128 0-231.424-103.424-231.424-231.424v-560.128c0-129.024 103.424-232.448 231.424-232.448h560.128c128 0 231.424 103.424 231.424 231.424v561.152c1.024 61.44-23.552 119.808-66.56 163.84zM456.704 215.552c0-39.936-32.768-72.704-72.704-72.704h-117.76c-39.936 0-72.704 32.768-72.704 72.704v116.736c0 39.936 32.768 72.704 72.704 72.704h116.736c39.936 0 72.704-32.768 72.704-72.704l1.024-116.736zM456.704 562.688c0-39.936-32.768-72.704-72.704-72.704h-117.76c-39.936 0-72.704 32.768-72.704 72.704v117.76c0 39.936 32.768 72.704 72.704 72.704h116.736c39.936 0 72.704-32.768 72.704-72.704l1.024-117.76zM830.464 215.552c0-39.936-32.768-72.704-72.704-72.704h-117.76c-39.936 0-72.704 32.768-72.704 72.704v116.736c0 39.936 32.768 72.704 72.704 72.704h116.736c39.936 0 72.704-32.768 72.704-72.704l1.024-116.736zM830.464 562.688c0-39.936-32.768-72.704-72.704-72.704h-117.76c-39.936 0-72.704 32.768-72.704 72.704v117.76c0 39.936 32.768 72.704 72.704 72.704h116.736c39.936 0 72.704-32.768 72.704-72.704l1.024-117.76z" />
<glyph unicode="&#xe91a;" glyph-name="Repository_Link" d="M908.288 49.664v396.698h114.483v-396.698c0-31.949-11.059-59.085-33.28-81.203-22.221-22.221-49.254-33.28-81.203-33.28h-793.395c-31.949 0-59.085 11.059-81.203 33.28-22.221 22.221-33.28 49.254-33.28 81.203v793.395c0 31.949 11.059 58.982 33.28 81.203s49.254 33.28 81.203 33.28h396.698v-114.483h-396.698v-793.395h793.395zM626.074 957.542h396.698v-396.698h-114.483v202.342l-556.442-556.442-79.872 79.872 556.442 556.442h-202.342v114.483z" />
<glyph unicode="&#xe91b;" glyph-name="Retail" d="M391.578 727.45v30.106c0 66.56-53.965 120.422-120.422 120.422s-120.422-53.965-120.422-120.422v-30.106h-150.733v-602.317h247.91l30.515 391.578h263.68v210.842h-150.528zM361.37 727.45h-180.736v30.106c0 49.869 40.448 90.317 90.317 90.317s90.317-40.448 90.317-90.317v-30.106zM988.877 486.502h-682.701l-35.123-451.789h752.947l-35.123 451.789zM767.59 419.635l-6.042-36.966c-10.035-60.211-56.627-104.858-111.002-104.858h-5.325c-54.477 0-101.171 44.032-111.002 104.858l-6.042 36.966c-1.536 8.090 3.789 15.872 11.878 17.306 8.090 1.536 15.872-3.789 17.306-11.878 0-0.205 0.102-0.41 0.102-0.717l6.042-36.966c7.578-46.080 41.677-79.462 81.306-79.462h5.325c39.629 0 73.933 33.382 81.306 79.462l6.042 36.966c1.331 8.294 9.114 14.029 17.51 12.698 8.294-1.331 13.926-9.114 12.595-17.408v0z" />
<glyph unicode="&#xe91c;" glyph-name="Search" d="M734.003 316.416l289.997-289.997-87.552-87.552-289.997 289.997v46.49l-16.384 16.384c-71.168-60.211-153.19-90.317-246.272-90.317-105.779 0-195.584 36.966-269.517 110.797-73.83 73.933-110.797 163.328-110.797 268.186s36.966 194.253 110.797 268.083c73.933 73.933 163.226 110.899 268.186 110.899 104.858 0 194.253-36.966 268.083-110.797s110.797-163.738 110.797-269.517c0-92.979-30.106-175.104-90.317-246.272l16.384-16.384h46.592zM197.734 393.011c50.995-51.098 113.050-76.595 186.061-76.595 72.909 0 134.963 25.498 186.061 76.595 50.995 50.995 76.595 113.050 76.595 186.061 0 72.909-25.6 134.963-76.595 186.061-51.098 50.995-113.152 76.595-186.061 76.595-73.011 0-134.963-25.6-186.061-76.595-51.098-51.098-76.595-113.152-76.595-186.061 0-73.011 25.6-135.066 76.595-186.061z" />
<glyph unicode="&#xe91d;" glyph-name="Send-01" d="M86.528 941.056l907.571-434.688c43.52-20.48 43.11-81.101 1.331-103.936l-895.898-455.885c-43.008-21.606-91.75 16.077-82.432 63.283l70.656 365.875 562.074 65.536c16.077 1.434 15.872 18.739-0.307 19.763l-563.507 50.79-80.282 366.387c-10.547 46.797 38.502 84.582 80.794 62.874z" />
<glyph unicode="&#xe91e;" glyph-name="sign-Out" d="M372.429 64.819h-212.787c-17.408 0-31.744 15.36-31.744 31.744v703.898c0 17.408 15.36 31.744 31.744 31.744h212.787c17.408 0 31.744 15.36 31.744 31.744v63.386c0 17.408-15.36 31.744-31.744 31.744h-287.539c-47.002-0.102-84.89-37.888-84.89-84.992v-852.275c0-47.104 37.888-84.89 84.89-84.89h287.539c17.408 0 31.744 15.36 31.744 31.744v63.386c1.024 17.408-14.336 32.768-31.744 32.768zM1013.862 472.064l-287.437 287.437c-12.288 12.288-31.744 12.288-45.056 0l-44.032-45.056c-13.312-12.288-13.312-31.744 0-45.056l118.682-118.682c12.288-12.288 4.096-35.84-15.36-35.84h-453.12c-17.408 0-31.744-13.312-31.744-29.696v-63.386c0-17.408 15.36-33.792 31.744-33.792h452.198c19.456 0 27.648-23.552 15.36-35.84l-119.706-121.549c-12.288-12.288-12.288-31.744 0-45.056l45.056-45.056c12.288-13.312 31.744-13.312 45.056 0l289.587 285.491c12.083 14.336 12.083 32.768-1.229 46.080z" />
<glyph unicode="&#xe91f;" glyph-name="Solution-Area" d="M512.020 806.502c20.992 0 37.99 16.998 37.99 37.99v77.619c0 20.992-16.998 37.888-37.99 37.888-20.89 0-37.888-16.998-37.888-37.888v-77.619c0-20.992 16.998-37.99 37.888-37.99zM100.987 663.245l67.277-38.81c18.125-10.445 41.37-4.198 51.814 13.926s4.198 41.37-13.926 51.814v0l-67.277 38.81c-18.125 10.445-41.37 4.198-51.814-13.926s-4.198-41.37 13.926-51.814zM493.076-63.693h37.99c20.992 0 37.99 16.998 37.99 37.99v0c32.461 3.277 57.037 30.618 56.934 63.283v88.576h-227.635v-88.474c-0.205-32.563 24.474-60.006 56.934-63.283v0c-0.205-20.992 16.589-38.093 37.581-38.298h0.41l-0.205 0.205zM757.473 894.669c-18.125 10.445-41.37 4.301-51.814-13.824 0 0 0 0 0 0v0l-38.81-67.277c-10.445-18.125-4.198-41.37 13.926-51.814s41.37-4.198 51.814 13.926v0 0l38.81 67.277c10.24 18.022 3.994 41.062-13.926 51.507v0.205zM512.020 710.042c-125.747 0-227.635-101.888-227.635-227.635 0-114.586 113.869-161.997 113.869-265.626v-53.35h227.635v53.35c0 103.322 113.869 150.733 113.869 265.626 0 125.645-101.99 227.635-227.738 227.635zM937.083 714.65c-10.445 18.125-33.69 24.371-51.814 13.926v0l-67.277-38.81c-18.125-10.445-24.371-33.69-13.926-51.814s33.69-24.371 51.814-13.926v0l67.277 39.219c17.92 10.445 24.166 33.382 13.926 51.405zM291.963 775.27c10.445-18.125 33.69-24.371 51.814-13.926s24.371 33.69 13.926 51.814v0l-38.81 67.277c-10.445 18.125-33.69 24.371-51.814 13.926s-24.371-33.69-13.926-51.814v0l38.81-67.277z" />
<glyph unicode="&#xe920;" glyph-name="View" d="M200.704 718.746c93.082 64.717 197.018 97.075 311.91 97.075s218.419-32.358 310.784-97.075c92.365-64.717 158.822-148.685 199.578-251.904-40.755-103.219-107.213-187.29-199.578-251.904-92.365-64.717-195.994-97.075-310.784-97.075-114.893 0-218.829 32.358-311.91 97.075-93.082 64.614-160.051 148.582-200.704 251.904 40.653 103.219 107.622 187.187 200.704 251.904zM347.955 302.080c45.773-45.773 100.659-68.71 164.659-68.71s118.477 22.938 163.635 68.71c45.056 45.773 67.584 100.659 67.584 164.659s-22.528 118.886-67.584 164.659c-45.056 45.773-99.635 68.71-163.635 68.71s-118.886-22.938-164.659-68.71c-45.773-45.773-68.71-100.762-68.71-164.659s22.835-118.784 68.71-164.659zM413.389 566.067c26.931 26.931 59.597 40.346 98.202 40.346 38.502 0 71.578-13.414 99.226-40.346s41.472-60.006 41.472-99.226-13.824-72.397-41.472-99.226c-27.648-26.931-60.723-40.346-99.226-40.346s-71.27 13.414-98.202 40.346c-26.931 26.931-40.346 60.006-40.346 99.226s13.414 72.294 40.346 99.226z" />
<glyph unicode="&#xe921;" glyph-name="Zoom-in" d="M732.979 315.085l291.021-291.021-87.859-87.859-291.021 291.021v46.694l-16.486 16.486c-71.373-60.416-153.702-90.624-247.091-90.624-106.189 0-196.301 37.069-270.438 111.206-74.035 74.138-111.104 163.738-111.104 269.005s37.069 194.867 111.206 269.005 163.738 111.206 269.005 111.206c105.267 0 194.97-37.069 269.005-111.206s111.206-164.25 111.206-270.438c0-93.389-30.208-175.718-90.624-247.091l16.486-16.486h46.694zM194.867 391.987c51.2-51.302 113.459-76.902 186.675-76.902s135.475 25.6 186.675 76.902c51.2 51.2 76.902 113.459 76.902 186.675s-25.6 135.475-76.902 186.675c-51.302 51.2-113.459 76.902-186.675 76.902s-135.475-25.702-186.675-76.902c-51.302-51.302-76.902-113.459-76.902-186.675 0.102-73.216 25.702-135.475 76.902-186.675zM527.053 551.219h-117.965v-118.067h-57.651v118.067h-118.067v57.651h118.067v118.067h57.651v-118.067h118.067v-57.651z" />
<glyph unicode="&#xe922;" glyph-name="Intro-1" d="M859.341 88.73v67.584c0 11.264-9.216 21.504-20.48 21.504 0 0 0 0-1.024 0h-22.528c4.096 40.96 22.528 80.896 52.224 113.664 34.816 37.888 53.248 86.016 53.248 137.216 0 111.616-93.184 202.752-203.776 195.584-94.208-5.12-173.056-80.896-181.248-178.176-5.12-58.368 14.336-115.712 54.272-157.696 30.72-30.72 48.128-70.656 53.248-111.616h-23.552c-12.288 0-20.48-10.24-20.48-21.504v-65.536zM562.381 444.058c7.168 83.968 74.752 149.504 155.648 154.624 96.256 5.12 176.128-73.728 176.128-168.96 0-44.032-16.384-87.040-47.104-119.808-34.816-35.84-54.272-82.944-60.416-131.072h-44.032v168.96l67.584 67.584c5.12 5.12 5.12 13.312-1.024 18.432-5.12 5.12-13.312 5.12-18.432 0l-62.464-61.44-60.416 60.416c-5.12 5.12-13.312 5.12-18.432-1.024-5.12-5.12-5.12-13.312 0-18.432l66.56-67.584v-168.96h-47.104c-4.096 48.128-25.6 93.184-60.416 129.024-31.744 36.864-50.176 87.040-46.080 138.24zM624.845 150.17l206.848 1.024v-62.464h-206.848v61.44zM430.285 119.45v0zM727.347 639.826c7.168 0 13.312 5.12 13.312 12.288 0 0 0 1.024 0 1.024v47.104c0 7.168-5.12 13.312-12.288 13.312 0 0-1.024 0-1.024 0-7.168 0-13.312-5.12-13.312-12.288 0 0 0-1.024 0-1.024v-47.104c1.024-7.168 6.144-13.312 13.312-13.312zM942.090 425.093c0-7.168 5.12-13.312 12.288-13.312 0 0 1.024 0 1.024 0h47.104c7.168 0 13.312 5.12 13.312 12.288 0 0 0 1.024 0 1.024 0 7.168-5.12 13.312-12.288 13.312 0 0-1.024 0-1.024 0h-47.104c-7.168 0-13.312-6.144-13.312-13.312zM454.298 411.781h47.104c7.168 0 13.312 5.12 13.312 12.288 0 0 0 1.024 0 1.024 0 7.168-5.12 13.312-12.288 13.312 0 0-1.024 0-1.024 0h-47.104c-7.168 0-13.312-5.12-13.312-12.288 0 0 0-1.024 0-1.024 0-7.168 5.12-13.312 12.288-13.312 0 0 1.024 0 1.024 0zM898.222 576.942l31.744 33.792c5.12 5.12 5.12 13.312 0 18.432 0 0 0 0 0 0-5.12 5.12-13.312 5.12-18.432 0 0 0 0 0 0 0l-31.744-33.792c-5.12-5.12-5.12-13.312-1.024-18.432 5.12-5.12 13.312-6.144 19.456 0 0-1.024 0 0 0 0v0zM557.117 576.942c5.12-5.12 13.312-5.12 18.432 1.024 5.12 5.12 5.12 13.312 0 18.432l-31.744 33.792c-5.12 5.12-13.312 5.12-18.432 0 0 0 0 0 0 0-5.12-5.12-5.12-13.312 0-18.432 0 0 0 0 0 0l31.744-34.816zM468.91 517.274l43.008-17.408c6.144-3.072 14.336 0 17.408 6.144s0 14.336-6.144 17.408c0 0 0 0 0 0l-43.008 17.408c-6.144 3.072-14.336 0-17.408-7.168s0-14.336 6.144-16.384zM808.755 623.114c6.144-3.072 14.336 0 17.408 7.168l17.408 43.008c3.072 7.168 0 14.336-7.168 17.408-6.144 3.072-14.336 0-17.408-6.144l-17.408-43.008c-3.072-7.168 1.024-15.36 7.168-18.432zM627.948 630.282c3.072-7.168 10.24-10.24 17.408-7.168 6.144 3.072 9.216 10.24 7.168 17.408l-17.408 43.008c-3.072 7.168-10.24 10.24-17.408 7.168s-10.24-10.24-7.168-17.408c0 0 0 0 0 0l17.408-43.008zM925.164 507.085c3.072-6.144 10.24-9.216 17.408-7.168l43.008 17.408c7.168 3.072 10.24 10.24 7.168 17.408s-10.24 10.24-17.408 7.168c0 0 0 0 0 0l-40.96-16.384c-8.192-3.072-12.288-10.24-9.216-18.432zM600.269 102.226h259.072v-25.6h-259.072v25.6zM337.259 366.954l-168.167-166.519-30.276 30.576 168.167 166.519 30.276-30.576zM310.788 758.162c-108.055-106.654-108.491-281.417-1.837-389.471s281.417-108.491 389.471-1.837c108.055 106.654 108.491 281.417 1.837 389.471 0 0 0 0 0 0-106.654 108.055-281.417 108.491-389.471 1.837 0 0 0 0 0 0zM332.41 736.198c96.187 95.115 250.769 94.693 345.885-1.494s94.693-250.769-1.494-345.885-250.769-94.693-345.885 1.494c0 0 0 0 0 0-95.115 96.187-93.757 250.353 1.494 345.885 0 0 0 0 0 0v0zM4.704 116.125l168.845 162.576c4.789 5.718 13.527 5.192 18.309 0.819l25.468-25.921c5.301-5.725 5.192-13.527-0.534-18.828l-158.14-176.315c-19.852 23.42-35.339 41.531-53.948 57.669zM507.137 685.309c-14.053-13.929-36.523-14.018-50.452 0.036s-14.018 36.523 0.036 50.452c14.053 13.929 36.523 14.018 50.452-0.036 0 0 0 0 0 0 13.929-14.053 14.018-36.523-0.036-50.452 0 0 0 0 0 0zM426.823 676.212c-6.142-6.237-17.585-6.749-23.406 0.329-6.237 6.142-6.749 17.585 0.329 23.406s17.585 6.749 23.406-0.329c0 0 0 0 0 0 6.237-6.142 6.749-17.585-0.329-23.406z" />
<glyph unicode="&#xe923;" glyph-name="Camers" d="M357.274 956.723h306.995l93.491-100.762h163.021c28.774 0 53.146-10.035 73.114-30.003s30.003-44.339 30.003-73.114v-613.888c0-28.774-10.035-53.146-30.003-73.114s-44.339-30.003-73.114-30.003h-817.664c-28.774 0-53.146 9.933-73.114 30.003-20.070 19.866-30.003 44.339-30.003 73.114v613.888c0 28.774 9.933 53.146 30.003 73.114 19.968 19.968 44.339 30.003 73.114 30.003h160.666l93.491 100.762zM330.957 264.806c49.562-50.381 109.466-75.571 179.814-75.571s130.662 25.19 181.043 75.571 75.571 110.694 75.571 181.043c0 70.349-25.19 130.662-75.571 181.043s-110.694 75.571-181.043 75.571c-70.349 0-130.355-25.19-179.814-75.571-49.562-50.381-74.342-110.694-74.342-181.043s24.781-130.662 74.342-181.043zM512 282.829c-109.568 0-164.25 54.374-164.25 163.021 0 108.749 54.784 163.123 164.25 163.123s164.25-54.374 164.25-163.123c0-108.749-54.784-163.021-164.25-163.021z" />
<glyph unicode="&#xe924;" glyph-name="Reports" d="M272.384 960l-160.768-159.744v-864.256h799.744v1024h-638.976zM543.744 759.296c33.792 0 65.536-9.216 92.16-24.576 27.648-16.384 51.2-39.936 67.584-67.584l-158.72-92.16v184.32zM352.256 611.84c16.384 27.648 39.936 51.2 67.584 67.584 27.648 15.36 58.368 24.576 92.16 24.576v-184.32l159.744 92.16c15.36-27.648 24.576-58.368 24.576-92.16s-9.216-65.536-24.576-92.16c-16.384-27.648-39.936-51.2-67.584-67.584-27.648-15.36-58.368-24.576-92.16-24.576s-65.536 9.216-92.16 24.576c-27.648 16.384-51.2 39.936-67.584 67.584-15.36 27.648-24.576 58.368-24.576 92.16s9.216 65.536 24.576 92.16zM751.616 95.744h-479.232v31.744h480.256v-31.744zM751.616 208.384h-479.232v31.744h480.256v-31.744z" />
<glyph unicode="&#xe925;" glyph-name="Dropdown_up" d="M512 725.504l512-512-119.808-119.808-392.192 392.192-392.192-392.192-119.808 120.832 512 510.976z" />
<glyph unicode="&#xe926;" glyph-name="Dropdown" d="M900.096 717.312l118.784-118.784-506.88-506.88-506.88 506.88 118.784 118.784 388.096-388.096 388.096 388.096z" />
<glyph unicode="&#xe927;" glyph-name="Edit" d="M1.024 150.016l628.736 628.736 212.992-212.992-628.736-628.736h-212.992v212.992zM1007.616 730.624l-103.424-104.448-212.992 214.016 103.424 103.424c10.24 10.24 23.552 16.384 39.936 16.384s29.696-5.12 39.936-16.384l133.12-133.12c10.24-10.24 16.384-23.552 16.384-39.936s-5.12-29.696-16.384-39.936z" />
<glyph unicode="&#xe928;" glyph-name="Manage-Account" d="M891.904 399.872l107.52-83.968c11.264-9.216 13.312-20.48 7.168-33.792l-102.4-177.152c-6.144-12.288-16.384-16.384-30.72-9.216l-126.976 50.176c-28.672-20.48-57.344-37.888-86.016-50.176l-19.456-134.144c-2.048-14.336-10.24-21.504-26.624-21.504h-203.776c-14.336 0-23.552 7.168-26.624 21.504l-19.456 134.144c-30.72 12.288-59.392 29.696-86.016 50.176l-126.976-50.176c-14.336-5.12-24.576-2.048-30.72 9.216l-102.4 177.152c-6.144 12.288-4.096 23.552 7.168 33.792l107.52 83.968c-2.048 19.456-2.048 35.84-2.048 50.176s1.024 30.72 2.048 50.176l-107.52 83.968c-11.264 9.216-13.312 20.48-7.168 33.792l103.424 177.152c8.192 12.288 18.432 16.384 30.72 9.216l126.976-50.176c28.672 20.48 57.344 37.888 86.016 50.176l19.456 134.144c3.072 14.336 11.264 21.504 25.6 21.504h203.776c16.384 0 24.576-7.168 26.624-21.504l19.456-134.144c30.72-12.288 59.392-29.696 86.016-50.176l126.976 50.176c14.336 5.12 24.576 2.048 30.72-9.216l103.424-177.152c6.144-12.288 4.096-23.552-7.168-33.792l-107.52-83.968c3.072-19.456 5.12-35.84 5.12-50.176s-3.072-30.72-6.144-50.176zM387.072 323.072c34.816-34.816 76.8-52.224 125.952-52.224s90.112 17.408 125.952 52.224c34.816 34.816 52.224 77.824 52.224 126.976s-17.408 92.16-52.224 126.976c-34.816 34.816-76.8 52.224-125.952 52.224s-91.136-17.408-125.952-52.224c-34.816-34.816-52.224-77.824-52.224-126.976-1.024-49.152 16.384-92.16 52.224-126.976z" />
<glyph unicode="&#xe929;" glyph-name="Email" d="M917.504 863.744c28.672 0 53.248-10.24 72.704-29.696s29.696-44.032 29.696-72.704v-611.328c0-28.672-10.24-53.248-29.696-72.704s-44.032-29.696-72.704-29.696h-815.104c-28.672 0-53.248 10.24-72.704 29.696s-29.696 43.008-29.696 71.68v612.352c0 28.672 10.24 53.248 29.696 72.704s44.032 29.696 72.704 29.696h815.104zM917.504 657.92v102.4l-408.576-256-406.528 257.024v-102.4l406.528-252.928 408.576 251.904z" />
<glyph unicode="&#xe92a;" glyph-name="Follow" d="M675.84 253.44c46.080-29.696 68.608-63.488 68.608-101.376v-93.184h-743.424v94.208c0 37.888 22.528 71.68 68.608 101.376s96.256 51.2 151.552 64.512c55.296 13.312 105.472 19.456 151.552 19.456s96.256-6.144 151.552-19.456c55.296-13.312 106.496-34.816 151.552-65.536zM186.368 617.984c0 51.2 18.432 95.232 54.272 132.096 36.864 35.84 79.872 54.272 132.096 54.272 51.2 0 95.232-18.432 132.096-54.272 36.864-36.864 54.272-79.872 54.272-132.096 0-51.2-18.432-95.232-54.272-132.096s-79.872-54.272-132.096-54.272c-51.2 0-95.232 18.432-132.096 54.272-35.84 36.864-54.272 80.896-54.272 132.096zM790.528 665.088h94.208v-139.264h139.264v-94.208h-139.264v-139.264h-94.208v139.264h-139.264v94.208h139.264v139.264z" />
<glyph unicode="&#xe92b;" glyph-name="Location" d="M207.872 855.552c69.632 69.632 153.6 104.448 252.928 104.448s184.32-34.816 253.952-104.448c70.656-69.632 105.472-153.6 105.472-252.928 0-49.152-12.288-106.496-36.864-172.032-24.576-64.512-55.296-124.928-90.112-180.224s-70.656-107.52-105.472-155.648c-34.816-49.152-64.512-88.064-89.088-116.736l-37.888-40.96c-9.216 9.216-22.528 23.552-37.888 43.008-16.384 19.456-44.032 56.32-84.992 111.616s-77.824 109.568-109.568 161.792c-31.744 52.224-60.416 110.592-86.016 176.128s-37.888 122.88-37.888 173.056c-1.024 99.328 33.792 183.296 103.424 252.928zM370.688 512.512c24.576-24.576 54.272-36.864 90.112-36.864 34.816 0 65.536 12.288 91.136 36.864s37.888 54.272 37.888 90.112c0 34.816-13.312 65.536-37.888 90.112-25.6 24.576-56.32 36.864-91.136 36.864s-65.536-12.288-90.112-36.864c-24.576-24.576-36.864-55.296-36.864-90.112s12.288-65.536 36.864-90.112z" />
<glyph unicode="&#xe92c;" glyph-name="Info" d="M151.552 810.496c99.328 98.304 219.136 148.48 359.424 148.48s260.096-50.176 359.424-148.48c99.328-99.328 148.48-219.136 148.48-358.4s-49.152-259.072-148.48-358.4c-99.328-99.328-219.136-148.48-359.424-148.48s-260.096 49.152-359.424 148.48c-99.328 98.304-149.504 218.112-149.504 357.376 0 140.288 50.176 260.096 149.504 359.424zM562.176 603.648v102.4h-102.4v-102.4h102.4zM562.176 197.12v304.128h-102.4v-305.152h102.4z" />
<glyph unicode="&#xe92d;" glyph-name="Phone_Number" d="M673.792 961.024c37.888 0 70.656-14.336 98.304-40.96 27.648-27.648 40.96-60.416 40.96-98.304v-745.472c0-37.888-13.312-70.656-40.96-98.304s-60.416-40.96-98.304-40.96h-372.736c-38.912 0-72.704 14.336-99.328 40.96-26.624 27.648-39.936 60.416-39.936 98.304v744.448c0 37.888 13.312 70.656 39.936 98.304s60.416 40.96 99.328 40.96h372.736zM730.112 169.472v651.264h-488.448v-651.264h488.448zM579.584 30.208v46.080h-185.344v-46.080h185.344z" />
<glyph unicode="&#xe92e;" glyph-name="User-Interest" d="M512 960c-282.624 0-512-229.376-512-512s229.376-512 512-512c282.624 0 512 229.376 512 512s-229.376 512-512 512zM716.8 419.328h-178.176v-179.2h-60.416v179.2h-179.2v59.392h179.2v178.176h60.416v-178.176h178.176v-59.392z" />
<glyph unicode="&#xe92f;" glyph-name="TravelAutomotive" d="M1001.062 470.528l-200.909 57.446c-133.427 80.896-232.96 128.102-384.205 128.102-123.392 0-246.579-10.65-368.128-32.051l15.974-32.051-48.026-64v-40.038c-9.933-5.734-15.974-16.282-15.974-27.75v-101.376c0-4.198 1.638-8.294 4.71-11.264l38.605-38.605c2.97-2.97 7.066-4.71 11.264-4.71h44.749c13.312-46.797 61.952-73.933 108.749-60.621 29.389 8.294 52.326 31.232 60.621 60.621h470.835c13.312-46.797 61.952-73.933 108.749-60.621 29.389 8.294 52.326 31.232 60.621 60.621h60.723c4.198 0 8.294 1.638 11.264 4.71l38.605 38.605c2.97 2.97 4.71 7.066 4.71 11.264v80.998c0 14.131-9.318 26.726-22.938 30.72zM138.752 605.594c21.709 2.765 54.682 6.246 70.554 7.885 2.97 0.205 5.53-1.946 5.734-4.915 0.102-0.819-0.102-1.741-0.41-2.56l-29.184-68.403c-1.126-2.662-4.301-3.994-6.963-2.867-0.922 0.41-1.741 1.024-2.355 1.946l-41.062 60.518c-1.638 2.458-1.024 5.734 1.434 7.373 0.717 0.614 1.536 0.819 2.253 1.024v0zM183.91 279.859c-26.522 0-48.026 21.504-48.026 48.026s21.504 48.026 48.026 48.026 48.026-21.504 48.026-48.026v0c-0.102-26.522-21.504-48.026-48.026-48.026v0zM401.818 513.536h-175.616c-5.939 0-10.65 4.71-10.65 10.65 0 1.434 0.307 2.867 0.819 4.198l35.226 82.227c1.536 3.686 5.12 6.144 9.114 6.451 39.322 2.56 79.053 4.915 106.291 6.246h9.216c4.915 0.205 9.318-3.072 10.65-7.782l25.293-88.576c1.536-5.734-1.843-11.571-7.578-13.107-0.819-0.205-1.741-0.307-2.765-0.307zM713.011 529.613l-5.939-11.878c-1.843-3.584-5.53-5.939-9.523-5.939h-225.485c-4.813 0-8.909 3.174-10.24 7.782l-25.702 89.805c-1.638 5.632 1.638 11.571 7.27 13.21 1.126 0.307 2.253 0.41 3.379 0.41 47.309-2.867 94.106-11.264 139.469-25.19 42.291-14.234 83.149-32.256 122.163-53.862 5.222-2.765 7.168-9.114 4.608-14.336v0zM824.115 279.859c-26.522 0-48.026 21.504-48.026 48.026s21.504 48.026 48.026 48.026 48.026-21.504 48.026-48.026v0c0-26.522-21.504-48.026-48.026-48.026 0 0 0 0 0 0z" />
<glyph unicode="&#xe930;" glyph-name="Dollar" d="M575.181 72.909v-95.949c0-0.030 0-0.066 0-0.103 0-21.604-17.513-39.117-39.117-39.117-0.036 0-0.072 0-0.108 0h-39.213c-0.030 0-0.066 0-0.103 0-21.604 0-39.117 17.513-39.117 39.117 0 0.036 0 0.072 0 0.108v-0.006 87.245c-78.643 3.379-153.19 22.016-201.523 45.875-8.054 3.393-13.606 11.221-13.606 20.346 0 1.022 0.070 2.028 0.204 3.013l-0.013-0.114 26.010 104.755c1.262 5.865 5.044 10.656 10.131 13.261l0.109 0.051c2.487 1.212 5.41 1.921 8.499 1.921s6.013-0.709 8.617-1.972l-0.118 0.051c53.63-26.555 116.671-42.419 183.338-43.21l0.266-0.002c70.554 0 118.784 27.238 118.784 76.8 0 47.104-39.629 76.902-131.379 107.93-132.506 44.851-221.082 106.291-221.082 226.611 0 109.158 94.003 194.56 211.661 220.57v78.95c0.174 21.471 17.62 38.81 39.116 38.81 0.072 0 0.145 0 0.217-0.001h39.208c0.031 0 0.067 0 0.104 0 21.496 0 38.942-17.339 39.115-38.793v-69.854c78.438-3.174 124.416-16.896 163.84-33.587 7.232-3.267 12.174-10.416 12.174-18.72 0-1.752-0.22-3.453-0.634-5.076l0.031 0.142-25.805-100.659c-1.463-5.717-5.183-10.375-10.132-13.054l-0.108-0.054c-2.66-1.353-5.8-2.146-9.126-2.146-2.802 0-5.473 0.563-7.905 1.581l0.135-0.050c-46.077 20.77-99.889 32.871-156.528 32.871-0.195 0-0.389 0-0.584 0h0.030c-80.589 0-106.598-34.714-106.598-69.427 0-40.96 43.315-66.97 148.89-106.598 147.354-52.122 210.227-120.218 210.227-231.834s-100.25-204.902-217.907-229.683z" />
<glyph unicode="&#xe931;" glyph-name="Customer" d="M356.147 678.502l6.758-47.002c2.216-14.95 14.695-26.373 29.947-26.93l0.056-0.002c16.077-115.61 103.526-120.934 117.146-121.037h4.096c13.619 0 101.069 5.222 117.146 120.525v0c15.608 0.201 28.461 11.747 30.699 26.759l0.021 0.172 6.656 47.002c0.246 1.459 0.386 3.14 0.386 4.854 0 11.59-6.418 21.681-15.895 26.912l-0.158 0.080c5.738 26.139 9.427 56.477 10.227 87.534l0.013 0.632c-0.307 56.525-50.688 114.483-117.453 121.037l-23.040 30.106c-162.304-7.68-161.382-140.39-161.382-140.39v-16.282c1.285-30.022 4.952-58.362 10.839-85.878l-0.599 3.343c-9.497-5.348-15.806-15.366-15.806-26.857 0-1.616 0.125-3.204 0.365-4.753l-0.022 0.172zM953.651-53.146l-40.96 307.2c-5.999 44.050-33.257 80.631-70.928 99.499l-0.752 0.341-224.563 109.773-56.934-273.408-31.846 150.016 13.926 40.96-29.594 51.2-29.798-51.2 14.131-42.496-31.744-148.787-57.037 273.715-224.461-110.182c-38.376-19.265-65.608-55.818-71.602-99.156l-0.078-0.684-40.96-307.2z" />
<glyph unicode="&#xe932;" glyph-name="Radio-Button" d="M153.6 808.038c89.647 92.355 214.954 149.667 353.646 149.667 2.716 0 5.426-0.022 8.131-0.066l-0.408 0.005c2.34 0.040 5.101 0.063 7.867 0.063 138.68 0 263.974-57.314 353.486-149.546l0.119-0.123c92.34-89.47 149.655-214.62 149.655-353.157 0-2.419-0.017-4.835-0.052-7.246l0.004 0.364c0.035-2.197 0.056-4.789 0.056-7.386 0-138.541-57.318-263.694-149.533-353.040l-0.129-0.124c-89.656-92.416-215.003-149.769-353.745-149.769-2.717 0-5.429 0.022-8.135 0.066l0.409-0.005c-2.255-0.037-4.917-0.058-7.583-0.058-138.755 0-264.115 57.352-353.667 149.644l-0.119 0.124c-92.464 89.487-149.864 214.72-149.864 353.36 0 2.528 0.019 5.053 0.057 7.572l-0.005-0.381c-0.029 1.988-0.045 4.335-0.045 6.686 0 138.636 57.396 263.866 149.723 353.224l0.134 0.129zM226.611 158.003c71.617-73.828 171.748-119.646 282.58-119.646 2.032 0 4.060 0.015 6.084 0.046l-0.306-0.004c1.8-0.030 3.923-0.047 6.050-0.047 110.78 0 210.857 45.822 282.312 119.548l0.099 0.102c73.907 71.851 119.762 172.22 119.762 283.3 0 2.355-0.021 4.704-0.062 7.049l0.005-0.352c0.031 1.85 0.049 4.033 0.049 6.22 0 111.035-45.855 211.36-119.66 283.071l-0.094 0.091c-71.514 73.886-171.591 119.753-282.38 119.753-2.138 0-4.272-0.017-6.402-0.051l0.321 0.004c-1.788 0.029-3.897 0.046-6.011 0.046-110.843 0-210.975-45.863-282.453-119.648l-0.1-0.103c-73.9-71.802-119.755-172.128-119.755-283.163 0-2.187 0.018-4.37 0.053-6.548l-0.004 0.328c-0.036-1.992-0.057-4.342-0.057-6.697 0-111.080 45.856-211.449 119.67-283.211l0.092-0.089z" />
<glyph unicode="&#xe933;" glyph-name="Selected-Radio-Button" d="M149.402 803.738c89.454 92.226 214.529 149.463 352.972 149.463 2.737 0 5.469-0.022 8.195-0.067l-0.411 0.005c2.345 0.040 5.112 0.063 7.884 0.063 138.444 0 263.52-57.238 352.853-149.34l0.12-0.125c92.212-89.213 149.456-214.078 149.456-352.314 0-2.572-0.020-5.139-0.059-7.702l0.005 0.387c0.035-2.175 0.055-4.743 0.055-7.315 0-138.236-57.245-263.101-149.322-352.184l-0.135-0.13c-89.454-92.227-214.529-149.465-352.973-149.465-2.772 0-5.539 0.023-8.3 0.069l0.416-0.005c-2.315-0.039-5.047-0.062-7.783-0.062-138.443 0-263.518 57.237-352.852 149.339l-0.12 0.124c-92.212 89.213-149.456 214.078-149.456 352.314 0 2.572 0.020 5.139 0.059 7.702l-0.005-0.387c-0.035 2.175-0.055 4.743-0.055 7.315 0 138.236 57.245 263.101 149.322 352.184l0.135 0.13zM222.208 154.931c71.465-73.761 171.432-119.544 282.092-119.544 2.059 0 4.115 0.016 6.167 0.047l-0.31-0.004c1.897-0.033 4.135-0.052 6.377-0.052 110.691 0 210.689 45.785 282.088 119.45l0.099 0.102c73.417 71.653 118.949 171.591 118.949 282.162 0 2.467-0.023 4.928-0.068 7.384l0.005-0.369c0.038 2.049 0.060 4.466 0.060 6.888 0 110.611-45.529 210.589-118.869 282.215l-0.077 0.075c-71.537 73.708-171.535 119.45-282.217 119.45-2.231 0-4.458-0.019-6.681-0.056l0.335 0.004c-1.733 0.028-3.778 0.043-5.826 0.043-110.651 0-210.618-45.74-282.027-119.343l-0.095-0.099c-73.957-71.731-119.856-172.027-119.856-283.044 0-2.157 0.017-4.309 0.052-6.458l-0.004 0.324c-0.032-1.863-0.050-4.060-0.050-6.262 0-110.977 45.902-211.233 119.756-282.818l0.102-0.098zM329.83 624.538c44.19 46.422 106.45 75.293 175.453 75.293 1.317 0 2.632-0.011 3.945-0.031l-0.198 0.002c1.013 0.015 2.208 0.024 3.406 0.024 69.494 0 132.25-28.844 176.951-75.213l0.072-0.075c46.444-44.773 75.288-107.53 75.288-177.023 0-1.198-0.009-2.393-0.026-3.587l0.002 0.181c0.015-1.013 0.024-2.208 0.024-3.406 0-69.494-28.844-132.25-75.213-176.951l-0.075-0.072c-44.773-46.444-107.53-75.288-177.023-75.288-1.198 0-2.393 0.009-3.587 0.026l0.181-0.002c-1.115-0.018-2.429-0.029-3.747-0.029-69.003 0-131.263 28.871-175.359 75.193l-0.094 0.1c-45.608 44.968-73.862 107.433-73.862 176.498 0 1.382 0.011 2.762 0.034 4.139l-0.003-0.208c-0.019 1.144-0.030 2.494-0.030 3.847 0 69.091 28.252 131.583 73.833 176.555l0.027 0.027z" />
<glyph unicode="&#xe934;" glyph-name="Time" d="M153.6 814.592c89.437 92.106 214.432 149.262 352.776 149.262 2.805 0 5.605-0.024 8.399-0.070l-0.421 0.006c2.283 0.038 4.977 0.060 7.676 0.060 138.342 0 263.335-57.154 352.656-149.137l0.116-0.12c92.087-89.164 149.25-213.92 149.25-352.027 0-2.529-0.019-5.053-0.057-7.573l0.005 0.381c0.034-2.156 0.054-4.701 0.054-7.25 0-138.121-57.162-262.892-149.12-351.946l-0.131-0.126c-89.436-92.103-214.429-149.257-352.772-149.257-2.699 0-5.393 0.022-8.082 0.065l0.406-0.005c-2.374-0.041-5.174-0.065-7.979-0.065-138.345 0-263.34 57.156-352.66 149.142l-0.116 0.12c-91.968 89.163-149.049 213.854-149.049 351.876 0 2.618 0.021 5.231 0.061 7.84l-0.005-0.394c-0.035 2.197-0.056 4.79-0.056 7.387 0 138.009 57.081 262.686 148.921 351.71l0.127 0.122zM226.509 166.502c71.28-73.697 171.058-119.449 281.522-119.449 2.224 0 4.443 0.019 6.658 0.055l-0.333-0.004c1.783-0.029 3.886-0.046 5.994-0.046 110.502 0 210.32 45.748 281.545 119.338l0.102 0.106c73.832 71.602 119.654 171.722 119.654 282.545 0 2.224-0.018 4.444-0.055 6.66l0.004-0.334c0.033 1.91 0.052 4.163 0.052 6.42 0 110.723-45.74 210.763-119.355 282.256l-0.096 0.092c-71.392 73.699-171.265 119.445-281.822 119.445-2.118 0-4.233-0.017-6.343-0.050l0.318 0.004c-1.77 0.029-3.859 0.045-5.951 0.045-110.516 0-210.347-45.747-281.589-119.338l-0.102-0.105c-73.71-71.521-119.454-171.507-119.454-282.177 0-2.317 0.020-4.63 0.060-6.938l-0.005 0.347c-0.036-1.978-0.056-4.311-0.056-6.649 0-110.684 45.743-210.684 119.357-282.127l0.098-0.094zM539.341 710.758v-267.366l229.274-136.090-38.195-64.102-267.469 161.997v305.562z" />
<glyph unicode="&#xe935;" glyph-name="Help-Support" d="M881.664 954.88h-742.4c-75.776 0-137.216-61.44-137.216-137.216v-558.080c0-75.776 61.44-137.216 137.216-137.216h139.264v-157.696c0-25.6 29.696-37.888 47.104-18.432l177.152 174.080c0 0 0 2.048 2.048 2.048h376.832c75.776 0 137.216 61.44 137.216 137.216v558.080c0 75.776-61.44 137.216-137.216 137.216zM547.84 334.336c0-12.288-9.216-22.528-22.528-22.528h-58.368c-12.288 0-22.528 9.216-22.528 22.528v37.888c0 12.288 9.216 22.528 22.528 22.528h58.368c12.288 0 22.528-9.216 22.528-22.528v-37.888zM641.024 557.568c-15.36-22.528-34.816-37.888-58.368-50.176-12.288-8.192-22.528-17.408-26.624-28.672-3.072-6.144-5.12-15.36-6.144-25.6 0-8.192-8.192-14.336-15.36-14.336h-70.656c-9.216 0-17.408 8.192-15.36 17.408 2.048 20.48 6.144 35.84 14.336 47.104 9.216 14.336 28.672 31.744 55.296 49.152 14.336 8.192 25.6 18.432 32.768 31.744 8.192 12.288 11.264 26.624 11.264 44.032s-5.12 31.744-14.336 40.96c-9.216 9.216-22.528 15.36-39.936 15.36-14.336 0-25.6-5.12-34.816-12.288-6.144-5.12-9.216-12.288-12.288-20.48-3.072-9.216-12.288-17.408-23.552-17.408l-66.56 2.048c-8.192 0-14.336 8.192-14.336 15.36 3.072 34.816 15.36 61.44 40.96 80.896 28.672 22.528 64.512 31.744 108.544 31.744 49.152 0 87.040-12.288 114.688-35.84 28.672-25.6 43.008-58.368 43.008-99.328 0-26.624-8.192-50.176-22.528-71.68z" />
<glyph unicode="&#xe936;" glyph-name="Error" d="M512 960c-282.624 0-512-229.376-512-512s229.376-512 512-512 512 229.376 512 512c0 282.624-229.376 512-512 512zM348.16 622.080c36.864 0 67.584-29.696 67.584-67.584 0-36.864-29.696-66.56-67.584-66.56-36.864 0-66.56 29.696-66.56 66.56-1.024 37.888 29.696 67.584 66.56 67.584zM337.92 157.184c-8.192 0-16.384 3.072-22.528 9.216-13.312 12.288-13.312 33.792-1.024 47.104 52.224 54.272 122.88 83.968 198.656 83.968s145.408-29.696 198.656-83.968c12.288-13.312 12.288-33.792-1.024-47.104-13.312-12.288-33.792-12.288-47.104 1.024-39.936 40.96-93.184 63.488-150.528 63.488s-110.592-22.528-150.528-63.488c-8.192-7.168-16.384-10.24-24.576-10.24zM675.84 487.936c-36.864 0-67.584 29.696-67.584 66.56s29.696 67.584 67.584 67.584c36.864 0 66.56-29.696 66.56-67.584 1.024-35.84-29.696-66.56-66.56-66.56z" />
<glyph unicode="&#xe937;" glyph-name="Microphone-01" d="M804.864 475.648h93.184c0-90.112-31.744-169.984-94.208-237.568s-139.264-108.544-228.352-121.856v-176.128h-107.52v176.128c-89.088 13.312-164.864 54.272-227.328 122.88s-94.208 147.456-94.208 236.544h90.112c0-76.8 28.672-141.312 84.992-193.536 57.344-52.224 123.904-77.824 199.68-77.824s142.336 25.6 198.656 77.824c56.32 51.2 84.992 115.712 84.992 193.536zM634.88 361.984c-30.72-31.744-68.608-48.128-112.64-48.128s-82.944 16.384-114.688 48.128c-31.744 31.744-48.128 69.632-48.128 112.64v322.56c0 45.056 16.384 82.944 48.128 114.688 31.744 30.72 69.632 46.080 114.688 46.080 44.032 0 81.92-15.36 112.64-46.080s46.080-68.608 46.080-114.688v-321.536c0-44.032-15.36-81.92-46.080-113.664z" />
<glyph unicode="&#xe938;" glyph-name="Notification-01" d="M417.792 61.338c-1.808-7.104-2.846-15.259-2.846-23.657 0-55.084 44.654-99.738 99.738-99.738 54.364 0 98.57 43.496 99.715 97.585l0.002 0.107c-0.032 9.145-1.226 17.997-3.44 26.435l0.163-0.733zM919.142 171.52c-0.952 8.646-4.432 16.34-9.674 22.483l0.048-0.058c-1.024 1.126-86.733 94.31-86.733 340.685 0 191.795-128.614 272.179-234.598 296.96v55.808c-0.572 39.972-32.911 72.204-72.871 72.601h-0.038c-40.235-0.328-72.854-32.481-73.931-72.502l-0.002-0.1v-56.832c-106.086-24.678-234.598-103.936-234.598-296.96 0-246.374-85.709-339.661-86.733-339.661-5.909-5.798-9.85-13.582-10.739-22.271l-0.013-0.155v-67.482h809.882v67.482z" />
<glyph unicode="&#xe939;" glyph-name="Governance" d="M649.318 588.39h-216.576c-20.303 0-36.762 16.459-36.762 36.762s16.459 36.762 36.762 36.762v0h216.576c20.303 0 36.762-16.459 36.762-36.762s-16.459-36.762-36.762-36.762v0zM307.712 715.366v0c-0.094 0.001-0.205 0.001-0.316 0.001-10.342 0-19.676-4.319-26.295-11.251l-0.013-0.014-60.826-60.416-16.998 16.179c-6.621 7.127-16.046 11.572-26.508 11.572-0.077 0-0.154 0-0.23-0.001h0.012c-20.742-0.55-37.428-17.165-38.091-37.826l-0.002-0.062c0-0.010 0-0.022 0-0.035 0-10.468 4.4-19.909 11.451-26.573l0.017-0.016 43.418-43.418c6.755-7.021 16.231-11.382 26.726-11.382 9.986 0 19.049 3.948 25.714 10.369l-0.012-0.011 1.126 1.024 87.45 87.347c7.070 6.697 11.469 16.152 11.469 26.634 0 0.033 0 0.065 0 0.098v-0.005c-0.284 20.923-17.17 37.808-38.066 38.093h-0.027zM307.712 529.92v0c-10.439-0.009-19.87-4.32-26.616-11.255l-0.008-0.009-60.826-60.416-16.998 16.179c-6.688 7.13-16.168 11.571-26.686 11.571-0.014 0-0.029 0-0.043 0h0.002c-20.776-0.553-37.483-17.223-38.091-37.933l-0.001-0.057c0-0.010 0-0.022 0-0.035 0-10.468 4.4-19.909 11.451-26.573l0.017-0.016 43.418-42.803c6.755-7.021 16.231-11.382 26.726-11.382 9.986 0 19.049 3.948 25.714 10.369l-0.012-0.011 1.126 1.024 87.45 87.347c6.821 6.469 11.159 15.5 11.467 25.544l0.001 0.056c-0.113 21.054-17.064 38.112-38.066 38.4h-0.027zM444.518 122.061h-354.202v748.749h539.955v-48.435c0.058-29.421 23.922-53.248 53.35-53.248 0.036 0 0.072 0 0.108 0h50.477v-245.76c6.246 0 12.39 0.717 18.739 0.717 24.362-0.019 48.069-2.779 70.842-7.988l-2.132 0.41v289.382c-0.061 14.139-5.844 26.916-15.152 36.144l-0.004 0.004-98.611 96.87c-8.992 8.924-21.378 14.439-35.053 14.439-0.097 0-0.194 0-0.29-0.001h-618.993c-28.056-0.29-50.688-23.1-50.688-51.197 0-0.001 0-0.002 0-0.003v0-811.622c0-0.001 0-0.003 0-0.005 0-28.025 22.516-50.791 50.445-51.195h426.227c-14.624 23.81-26.606 51.329-34.51 80.525l-0.51 2.214zM586.342 476.672h-153.6c-20.303 0-36.762-16.459-36.762-36.762s16.459-36.762 36.762-36.762v0h70.861c23.101 29.044 50.47 53.48 81.396 72.743l1.344 0.78zM445.645 291.123h-271.053c-20.416 0-36.966-16.55-36.966-36.966s16.55-36.966 36.966-36.966h259.482c0.893 26.668 5.060 51.998 12.113 76.094l-0.542-2.161zM752.947 475.443c-0.031 0-0.066 0-0.102 0-149.755 0-271.155-121.4-271.155-271.155s121.4-271.155 271.155-271.155c149.755 0 271.155 121.4 271.155 271.155v0c0 0.031 0 0.066 0 0.102 0 149.698-121.354 271.053-271.053 271.053v0zM752.947 15.667c-104.153 0.175-188.518 84.648-188.518 188.825 0 104.285 84.54 188.826 188.826 188.826s188.825-84.54 188.826-188.825v0c-0.175-104.21-84.694-188.621-188.928-188.621-0.072 0-0.144 0-0.216 0h0.011zM867.533 210.637v0c2.386 3.127 4.305 6.767 5.562 10.703l0.070 0.254c1.069 3.266 1.686 7.024 1.686 10.926 0 15.973-10.331 29.533-24.675 34.362l-0.256 0.075c-4.351 1.246-7.482 5.188-7.482 9.862 0 0.133 0.003 0.266 0.008 0.397l-0.001-0.019c0.004 0.202 0.006 0.44 0.006 0.678 0 9.719-3.913 18.523-10.249 24.925l0.003-0.003c-6.61 6.584-15.728 10.655-25.797 10.655-4.105 0-8.051-0.676-11.734-1.924l0.258 0.076c-1.040-0.39-2.242-0.615-3.496-0.615-3.516 0-6.618 1.772-8.462 4.471l-0.023 0.035c-2.424 3.298-5.266 6.108-8.489 8.422l-0.113 0.077c-5.819 4.177-13.085 6.68-20.936 6.68-12.099 0-22.81-5.944-29.371-15.072l-0.074-0.108c-1.995-2.741-5.192-4.502-8.801-4.502-1.172 0-2.301 0.186-3.359 0.53l0.077-0.022c-3.441 1.19-7.406 1.878-11.532 1.878-10.057 0-19.159-4.084-25.741-10.683l-0.001-0.001c-6.333-6.368-10.248-15.146-10.248-24.839 0-0.268 0.003-0.535 0.009-0.801l-0.001 0.040c0.004-0.113 0.007-0.245 0.007-0.378 0-4.674-3.131-8.616-7.41-9.844l-0.072-0.018c-4.193-1.305-7.836-3.226-11.038-5.692l0.082 0.060c-8.813-6.645-14.451-17.094-14.451-28.861 0-8.198 2.737-15.758 7.347-21.813l-0.065 0.088c1.35-1.718 2.165-3.913 2.165-6.298s-0.815-4.579-2.182-6.32l0.017 0.022c-2.406-3.152-4.328-6.83-5.565-10.809l-0.067-0.25c-1.038-3.214-1.636-6.913-1.636-10.751 0-16.124 10.557-29.782 25.137-34.44l0.256-0.071c4.351-1.246 7.482-5.188 7.482-9.862 0-0.133-0.003-0.266-0.008-0.397l0.001 0.019c-0.005-0.221-0.008-0.482-0.008-0.744 0-9.666 3.916-18.417 10.248-24.754v0c6.632-6.622 15.789-10.717 25.902-10.717 4.065 0 7.976 0.662 11.63 1.883l-0.259-0.075c1.040 0.39 2.242 0.615 3.496 0.615 3.516 0 6.618-1.772 8.462-4.471l0.023-0.035c6.631-9.273 17.364-15.245 29.491-15.245s22.86 5.972 29.417 15.136l0.074 0.109c1.867 2.735 4.969 4.507 8.484 4.507 1.255 0 2.456-0.226 3.567-0.638l-0.071 0.023c3.418-1.163 7.355-1.834 11.449-1.834 10.126 0 19.293 4.105 25.927 10.742v0c6.333 6.459 10.242 15.316 10.242 25.085 0 0.145-0.001 0.29-0.003 0.434v-0.022c-0.005 0.121-0.008 0.264-0.008 0.407 0 4.637 3.082 8.553 7.308 9.814l0.072 0.019c3.955 1.426 7.378 3.331 10.428 5.696l-0.086-0.064c8.94 6.678 14.666 17.232 14.666 29.123 0 8.346-2.82 16.033-7.56 22.16l0.062-0.083c-1.171 1.642-1.872 3.69-1.872 5.901 0 2.333 0.78 4.485 2.095 6.207l-0.018-0.025zM847.053 182.784c0.673-0.88 1.228-1.898 1.615-2.995l0.024-0.077c0.387-1.036 0.61-2.233 0.61-3.483 0-4.632-3.076-8.546-7.296-9.811l-0.072-0.019c-14.878-4.584-25.505-18.21-25.505-34.317 0-0.247 0.003-0.494 0.007-0.74l-0.001 0.037c0.015-0.208 0.024-0.451 0.024-0.696 0-5.655-4.585-10.24-10.24-10.24-1.335 0-2.61 0.255-3.779 0.72l0.069-0.024c-3.422 1.18-7.365 1.862-11.467 1.862-12.112 0-22.837-5.94-29.42-15.067l-0.073-0.107c-0.698-0.986-1.51-1.83-2.43-2.54l-0.027-0.020c-1.709-1.326-3.884-2.125-6.246-2.125-3.591 0-6.75 1.849-8.578 4.646l-0.024 0.039c-6.634 9.243-17.349 15.192-29.454 15.192-4.117 0-8.074-0.688-11.761-1.956l0.254 0.076c-1.030-0.382-2.219-0.602-3.46-0.602-2.957 0-5.622 1.254-7.491 3.259l-0.006 0.006c-1.839 1.756-2.983 4.228-2.983 6.966 0 0.179 0.005 0.357 0.015 0.534l-0.001-0.025c0.002 0.147 0.003 0.321 0.003 0.495 0 16.163-10.669 29.835-25.349 34.356l-0.255 0.068c-1.174 0.411-2.192 0.966-3.099 1.658l0.027-0.020c-2.615 1.88-4.299 4.913-4.299 8.34 0 2.433 0.849 4.668 2.266 6.425l-0.015-0.020c4.507 5.94 7.219 13.456 7.219 21.606s-2.713 15.667-7.284 21.696l0.065-0.089c-0.649 0.855-1.201 1.835-1.61 2.887l-0.028 0.082c-0.408 1.062-0.644 2.291-0.644 3.575 0 4.645 3.092 8.567 7.33 9.821l0.072 0.018c14.934 4.589 25.603 18.26 25.603 34.423 0 0.174-0.001 0.348-0.004 0.521v-0.026c-0.004 0.107-0.006 0.234-0.006 0.36 0 2.816 1.137 5.367 2.976 7.218l-0.001-0.001c1.87 1.966 4.505 3.188 7.425 3.188 1.268 0 2.482-0.23 3.602-0.652l-0.071 0.023c3.427-1.191 7.377-1.88 11.487-1.88 12.133 0 22.865 5.994 29.398 15.183l0.075 0.111c0.73 0.948 1.574 1.76 2.524 2.433l0.036 0.024c1.705 1.315 3.871 2.107 6.222 2.107 3.54 0 6.661-1.797 8.5-4.528l0.023-0.037c6.607-9.3 17.34-15.294 29.473-15.294 4.111 0 8.061 0.688 11.741 1.955l-0.253-0.076c1.129 0.466 2.441 0.737 3.815 0.737 5.655 0 10.24-4.585 10.24-10.24 0-0.259-0.010-0.517-0.029-0.771l0.002 0.034c-0.004-0.202-0.006-0.439-0.006-0.677 0-16.088 10.631-29.693 25.251-34.174l0.253-0.067c1.172-0.373 2.192-0.895 3.103-1.557l-0.031 0.021c2.646-1.877 4.351-4.928 4.351-8.377 0-2.463-0.869-4.722-2.318-6.489l0.014 0.018c-4.483-5.919-7.181-13.405-7.181-21.521 0-8.056 2.658-15.492 7.145-21.477l-0.067 0.093zM813.261 204.493c0 0.030 0 0.066 0 0.102 0 33.423-27.095 60.518-60.518 60.518s-60.518-27.095-60.518-60.518c0-33.423 27.095-60.518 60.518-60.518v0c0.061 0 0.133 0 0.205 0 33.31 0 60.314 27.003 60.314 60.314 0 0.036 0 0.072 0 0.108v-0.006zM787.661 204.493c-0.058-19.241-15.669-34.816-34.918-34.816-19.285 0-34.918 15.634-34.918 34.918s15.633 34.918 34.918 34.918v0c0.061 0 0.134 0.001 0.206 0.001 19.172 0 34.714-15.542 34.714-34.714 0-0.108 0-0.216-0.001-0.324v0.016z" />
<glyph unicode="&#xe93a;" glyph-name="Live-Assets" d="M512 149.299c164.968 0 298.701 133.733 298.701 298.701s-133.733 298.701-298.701 298.701c-164.968 0-298.701-133.733-298.701-298.701v0c0-164.968 133.733-298.701 298.701-298.701v0zM512 106.701c-188.494 0-341.299 152.805-341.299 341.299s152.805 341.299 341.299 341.299c188.494 0 341.299-152.805 341.299-341.299v0c0-188.494-152.805-341.299-341.299-341.299v0zM512 362.701c47.109 0 85.299 38.19 85.299 85.299s-38.19 85.299-85.299 85.299c-47.109 0-85.299-38.19-85.299-85.299v0c0-47.109 38.19-85.299 85.299-85.299v0zM512 277.299c-94.275 0-170.701 76.425-170.701 170.701s76.425 170.701 170.701 170.701c94.275 0 170.701-76.425 170.701-170.701v0c-0.058-94.252-76.449-170.642-170.695-170.701h-0.006zM584.704-58.061c-11.989 0-21.709 9.719-21.709 21.709s9.719 21.709 21.709 21.709c11.989 0 21.709-9.719 21.709-21.709v0c0-11.989-9.719-21.709-21.709-21.709v0zM506.368-63.181c-10.417 1.72-18.265 10.66-18.265 21.434 0 11.989 9.719 21.709 21.709 21.709s21.709-9.719 21.709-21.709c0-1.204-0.098-2.386-0.287-3.537l0.017 0.126c-1.654-10.432-10.584-18.313-21.354-18.313-1.246 0-2.468 0.106-3.657 0.308l0.128-0.018zM428.237-56.32c-8.8 2.904-15.040 11.053-15.040 20.659 0 11.989 9.719 21.709 21.709 21.709s21.709-9.719 21.709-21.709c0-2.369-0.379-4.649-1.081-6.784l0.044 0.153c-2.935-8.812-11.108-15.052-20.738-15.052-2.359 0-4.63 0.374-6.757 1.067l0.154-0.043zM352.358-37.683c-7.352 3.582-12.328 10.998-12.328 19.577 0 11.989 9.719 21.709 21.709 21.709s21.709-9.719 21.709-21.709c0-3.394-0.779-6.605-2.167-9.466l0.057 0.129c-3.573-7.376-11.002-12.372-19.598-12.372-3.411 0-6.638 0.787-9.509 2.188l0.128-0.057zM279.859-7.578c-5.438 3.994-8.929 10.363-8.929 17.549 0 11.989 9.719 21.709 21.709 21.709s21.709-9.719 21.709-21.709c0-4.565-1.409-8.801-3.816-12.297l0.048 0.073c-3.987-5.735-10.543-9.443-17.965-9.443-4.79 0-9.219 1.544-12.817 4.161l0.063-0.043zM212.89 33.382c-3.923 3.928-6.349 9.351-6.349 15.341 0 11.989 9.719 21.709 21.709 21.709s21.709-9.719 21.709-21.709c0-5.99-2.426-11.413-6.349-15.341v0c-3.934-3.965-9.386-6.419-15.411-6.419-5.974 0-11.385 2.413-15.31 6.318l0.001-0.001zM152.883 84.582c-2.839 3.634-4.553 8.268-4.553 13.302 0 7.108 3.416 13.417 8.695 17.377l0.056 0.040c3.625 2.669 8.179 4.272 13.107 4.272 12.285 0 22.243-9.959 22.243-22.243 0-7.356-3.571-13.879-9.075-17.928l-0.062-0.043c-3.56-2.684-8.058-4.298-12.933-4.298-7.16 0-13.506 3.482-17.437 8.846l-0.042 0.061zM101.683 143.36c-1.718 3.038-2.73 6.67-2.73 10.54 0 11.989 9.719 21.709 21.709 21.709s21.709-9.719 21.709-21.709c0-8.090-4.425-15.146-10.987-18.88l-0.107-0.056c-3.156-1.893-6.964-3.012-11.033-3.012-7.969 0-14.935 4.294-18.711 10.694l-0.055 0.101zM59.699 209.715c-0.715 2.061-1.128 4.436-1.128 6.907 0 11.989 9.719 21.709 21.709 21.709s21.709-9.719 21.709-21.709c0-9.458-6.049-17.504-14.489-20.48l-0.152-0.047c-2.196-0.815-4.732-1.286-7.379-1.286-9.346 0-17.32 5.879-20.424 14.141l-0.050 0.15zM28.979 281.395c-0.207 1.125-0.325 2.42-0.325 3.742 0 11.989 9.719 21.709 21.709 21.709s21.709-9.719 21.709-21.709c0-10.827-7.925-19.802-18.291-21.441l-0.123-0.016c-1.216-0.242-2.613-0.38-4.043-0.38-10.603 0-19.431 7.602-21.331 17.653l-0.021 0.135zM8.294 356.966c-0.022 0.363-0.034 0.788-0.034 1.216 0 11.989 9.719 21.709 21.709 21.709s21.709-9.719 21.709-21.709c0-11.725-9.296-21.28-20.92-21.695l-0.038-0.001c-0.224-0.008-0.487-0.013-0.751-0.013-11.562 0-21.012 9.038-21.672 20.435l-0.003 0.058zM0 435.098c1.372 10.795 10.499 19.057 21.555 19.057 11.995 0 21.719-9.724 21.719-21.719 0-0.938-0.060-1.863-0.175-2.77l0.011 0.108c-1.372-10.795-10.499-19.057-21.555-19.057-11.995 0-21.719 9.724-21.719 21.719 0 0.938 0.060 1.863 0.175 2.77l-0.011-0.108zM3.789 513.126c2.574 9.325 10.981 16.059 20.961 16.059 11.989 0 21.709-9.719 21.709-21.709s-9.719-21.709-21.709-21.709c-1.992 0-3.921 0.268-5.753 0.77l0.152-0.036c-9.253 2.622-15.917 10.994-15.917 20.922 0 2.029 0.278 3.992 0.799 5.855l-0.036-0.153zM19.558 589.926c3.457 7.679 11.043 12.929 19.854 12.929 11.989 0 21.709-9.719 21.709-21.709s-9.719-21.709-21.709-21.709c-3.144 0-6.133 0.669-8.831 1.871l0.138-0.055c-7.634 3.476-12.845 11.038-12.845 19.817 0 3.207 0.695 6.252 1.944 8.991l-0.055-0.136zM47.104 663.040c3.936 5.948 10.597 9.817 18.162 9.817 11.989 0 21.709-9.719 21.709-21.709s-9.719-21.709-21.709-21.709c-4.392 0-8.479 1.304-11.895 3.546l0.082-0.051c-5.972 3.956-9.857 10.646-9.857 18.243 0 4.41 1.309 8.514 3.559 11.945l-0.051-0.083zM85.402 731.546c3.986 4.377 9.709 7.114 16.071 7.114 11.989 0 21.709-9.719 21.709-21.709s-9.719-21.709-21.709-21.709c-5.599 0-10.703 2.12-14.553 5.6l0.019-0.017c-4.567 4-7.434 9.843-7.434 16.356 0 5.762 2.245 11 5.908 14.887l-0.010-0.011zM133.325 792.986c3.736 3.129 8.593 5.029 13.895 5.029 11.989 0 21.709-9.719 21.709-21.709s-9.719-21.709-21.709-21.709c-6.621 0-12.55 2.964-16.532 7.638l-0.025 0.031c-3.475 3.834-5.602 8.946-5.602 14.555 0 6.8 3.126 12.87 8.020 16.85l0.040 0.031zM190.464 847.36c3.199 1.961 7.072 3.122 11.217 3.122 11.989 0 21.709-9.719 21.709-21.709s-9.719-21.709-21.709-21.709c-7.847 0-14.722 4.163-18.535 10.402l-0.054 0.095c-1.936 3.193-3.082 7.051-3.082 11.177 0 7.846 4.143 14.725 10.361 18.567l0.094 0.054zM255.181 891.904c2.4 0.994 5.187 1.571 8.109 1.571 11.989 0 21.709-9.719 21.709-21.709s-9.719-21.709-21.709-21.709c-9.023 0-16.76 5.504-20.036 13.338l-0.053 0.143c-1.047 2.457-1.656 5.315-1.656 8.315 0 9.081 5.576 16.86 13.492 20.1l0.145 0.052zM325.939 925.901c1.465 0.353 3.148 0.555 4.877 0.555 11.989 0 21.709-9.719 21.709-21.709s-9.719-21.709-21.709-21.709c-10.268 0-18.87 7.128-21.129 16.706l-0.029 0.147c-0.364 1.488-0.573 3.196-0.573 4.953 0 10.268 7.129 18.871 16.707 21.13l0.147 0.029zM400.998 948.736c0.35 0.020 0.76 0.032 1.172 0.032 11.989 0 21.709-9.719 21.709-21.709s-9.719-21.709-21.709-21.709c-11.438 0-20.81 8.845-21.648 20.069l-0.004 0.072c-0.036 0.471-0.057 1.020-0.057 1.573 0 11.598 9.052 21.081 20.476 21.771l0.061 0.003zM478.31 960c11.342-0.791 20.243-10.186 20.243-21.659 0-11.989-9.719-21.709-21.709-21.709s-21.709 9.719-21.709 21.709c0 0.415 0.012 0.827 0.035 1.236l-0.003-0.057c0.643 11.471 10.102 20.53 21.677 20.53 0.516 0 1.027-0.018 1.534-0.053l-0.068 0.004zM556.851 959.181c9.676-2.325 16.756-10.904 16.756-21.136 0-11.989-9.719-21.709-21.709-21.709s-21.709 9.719-21.709 21.709c0 1.721 0.2 3.396 0.579 5.002l-0.029-0.147c2.324 9.677 10.904 16.757 21.137 16.757 1.765 0 3.481-0.211 5.124-0.608l-0.148 0.030zM634.266 946.381c8.043-3.3 13.605-11.070 13.605-20.14 0-11.989-9.719-21.709-21.709-21.709s-21.709 9.719-21.709 21.709c0 2.902 0.569 5.671 1.603 8.201l-0.052-0.145c3.31 8.022 11.069 13.564 20.123 13.564 2.933 0 5.731-0.582 8.283-1.636l-0.144 0.053zM708.813 921.805c6.334-3.868 10.497-10.742 10.497-18.589 0-11.989-9.719-21.709-21.709-21.709s-21.709 9.719-21.709 21.709c0 4.144 1.161 8.018 3.176 11.312l-0.054-0.095c3.877 6.289 10.727 10.417 18.541 10.417 4.161 0 8.049-1.171 11.352-3.201l-0.094 0.054zM778.752 886.17c4.704-4.007 7.668-9.936 7.668-16.557 0-11.989-9.719-21.709-21.709-21.709s-21.709 9.719-21.709 21.709c0 5.301 1.9 10.159 5.057 13.929l-0.028-0.034c4.009 4.755 9.969 7.754 16.63 7.754 5.391 0 10.324-1.965 14.12-5.219l-0.029 0.025zM842.138 840.602c3.433-3.824 5.533-8.906 5.533-14.478 0-11.989-9.719-21.709-21.709-21.709s-21.709 9.719-21.709 21.709c0 6.386 2.757 12.128 7.146 16.1l0.019 0.017c3.826 3.442 8.914 5.547 14.493 5.547 6.444 0 12.232-2.808 16.208-7.266l0.019-0.021zM898.15 785.51c2.163-3.318 3.449-7.379 3.449-11.741 0-11.989-9.719-21.709-21.709-21.709s-21.709 9.719-21.709 21.709c0 7.584 3.889 14.26 9.781 18.142l0.082 0.050c3.334 2.21 7.429 3.527 11.83 3.527 7.658 0 14.386-3.984 18.223-9.993l0.052-0.087zM945.050 722.637c1.184-2.596 1.875-5.63 1.875-8.825 0-11.989-9.719-21.709-21.709-21.709s-21.709 9.719-21.709 21.709c0 8.75 5.176 16.29 12.633 19.727l0.135 0.056c2.603 1.185 5.646 1.876 8.851 1.876 8.832 0 16.438-5.25 19.868-12.799l0.056-0.137zM981.709 652.8c0.467-1.68 0.735-3.609 0.735-5.601 0-11.989-9.719-21.709-21.709-21.709s-21.709 9.719-21.709 21.709c0 9.98 6.734 18.387 15.906 20.925l0.153 0.036c1.673 0.461 3.595 0.725 5.578 0.725 10.009 0 18.443-6.742 21.010-15.932l0.037-0.153zM1007.309 579.072c0.084-0.718 0.132-1.55 0.132-2.392 0-11.989-9.719-21.709-21.709-21.709s-21.709 9.719-21.709 21.709c0 11.040 8.242 20.156 18.908 21.53l0.108 0.011c0.846 0.117 1.824 0.184 2.817 0.184 11.023 0 20.119-8.255 21.441-18.921l0.011-0.105zM1021.44 501.862c-0.416-11.662-9.97-20.958-21.696-20.958-11.989 0-21.709 9.719-21.709 21.709s9.719 21.709 21.709 21.709c0.428 0 0.853-0.012 1.274-0.037l-0.058 0.003c11.451-0.667 20.485-10.115 20.485-21.674 0-0.156-0.002-0.312-0.005-0.467v0.023zM1023.59 423.322c-2.026-10.060-10.792-17.529-21.303-17.529-11.989 0-21.709 9.719-21.709 21.709s9.719 21.709 21.709 21.709c1.45 0 2.867-0.142 4.237-0.413l-0.138 0.023c10.265-1.802 17.966-10.651 17.966-21.298 0-1.376-0.129-2.722-0.375-4.027l0.021 0.134zM1013.76 345.6c-3.127-8.396-11.075-14.269-20.394-14.269-11.989 0-21.709 9.719-21.709 21.709s9.719 21.709 21.709 21.709c2.651 0 5.191-0.475 7.539-1.345l-0.15 0.049c8.412-3.154 14.291-11.127 14.291-20.474 0-2.647-0.471-5.183-1.335-7.53l0.049 0.151zM992.051 270.131c-3.784-6.693-10.854-11.137-18.961-11.137-11.989 0-21.709 9.719-21.709 21.709s9.719 21.709 21.709 21.709c3.838 0 7.443-0.996 10.572-2.743l-0.11 0.056c6.706-3.781 11.161-10.857 11.161-18.974 0-3.819-0.986-7.408-2.718-10.526l0.057 0.111zM959.386 199.168c-4.008-5.164-10.216-8.455-17.193-8.455-11.989 0-21.709 9.719-21.709 21.709s9.719 21.709 21.709 21.709c4.853 0 9.335-1.593 12.95-4.284l-0.058 0.041c5.316-4.002 8.717-10.299 8.717-17.392 0-4.955-1.66-9.522-4.454-13.176l0.038 0.052zM915.968 133.837c-3.928-3.923-9.351-6.349-15.341-6.349-11.989 0-21.709 9.719-21.709 21.709s9.719 21.709 21.709 21.709c5.99 0 11.413-2.426 15.341-6.349v0c3.873-3.919 6.266-9.309 6.266-15.258s-2.393-11.339-6.268-15.26l0.002 0.002zM863.13 75.776c-3.457-2.407-7.745-3.846-12.368-3.846-12.046 0-21.811 9.765-21.811 21.811s9.765 21.811 21.811 21.811c7.256 0 13.685-3.543 17.65-8.994l0.043-0.063c2.514-3.508 4.020-7.887 4.020-12.618 0-7.38-3.666-13.905-9.276-17.851l-0.069-0.046zM801.69 26.522c-2.721-1.32-5.919-2.092-9.297-2.092-11.989 0-21.709 9.719-21.709 21.709s9.719 21.709 21.709 21.709c8.546 0 15.939-4.938 19.48-12.117l0.057-0.127c1.315-2.731 2.083-5.939 2.083-9.326 0-8.492-4.83-15.856-11.893-19.494l-0.123-0.058zM734.413-12.8c-1.999-0.671-4.301-1.057-6.693-1.057-11.989 0-21.709 9.719-21.709 21.709s9.719 21.709 21.709 21.709c9.561 0 17.678-6.18 20.574-14.764l0.045-0.153c0.691-2.027 1.090-4.363 1.090-6.792 0-9.597-6.228-17.74-14.863-20.607l-0.153-0.044zM661.299-41.37c-1.031-0.173-2.218-0.271-3.429-0.271-12.046 0-21.811 9.765-21.811 21.811s9.765 21.811 21.811 21.811c10.866 0 19.876-7.946 21.537-18.344l0.016-0.124c0.128-0.889 0.201-1.915 0.201-2.958 0-10.835-7.864-19.834-18.196-21.599l-0.13-0.018z" />
<glyph unicode="&#xe93b;" glyph-name="Most-Searched-Keywords" horiz-adv-x="1023" d="M417.075 119.296c-30.472 24.616-55.392 54.768-73.495 89.074l-0.745 1.55h-202.752c-13.912 0-25.19 11.278-25.19 25.19s11.278 25.19 25.19 25.19h182.579c-4.406 15.574-8.347 34.751-11.009 54.336l-0.255 2.292c-0.883 8.497-1.386 18.358-1.386 28.338 0 1.99 0.020 3.975 0.060 5.956l-0.005-0.297h-169.984c-13.912 0-25.19 11.278-25.19 25.19s11.278 25.19 25.19 25.19h175.002c7.404 34.215 18.815 64.494 33.977 92.442l-0.902-1.818h-208.077c-13.912 0-25.19 11.278-25.19 25.19s11.278 25.19 25.19 25.19h244.326c36.287 41.445 83.097 72.817 136.281 90.019l2.164 0.605h-382.771c-13.912 0-25.19 11.278-25.19 25.19s11.278 25.19 25.19 25.19h440.32c13.868-0.058 25.088-11.314 25.088-25.19 0 0 0 0 0 0v0c0.003-0.144 0.005-0.314 0.005-0.485 0-4.517-1.38-8.712-3.74-12.186l0.049 0.076h6.246c39.002-0.37 76.149-7.852 110.356-21.208l-2.119 0.728v240.845c0 0 0 0 0 0 0 13.876-11.22 25.132-25.082 25.19h-661.817c-13.912 0-25.19-11.278-25.19-25.19v0-839.68c0-13.912 11.278-25.19 25.19-25.19v0h663.45c13.889 0.058 25.132 11.301 25.19 25.185v54.073c-35.21-15.827-76.312-25.090-119.566-25.19h-0.037c-0.158 0-0.344 0-0.531 0-68.791 0-131.923 24.226-181.332 64.611l0.513-0.406zM845.107 187.29l-31.437-39.014 168.755-135.987c4.362-3.768 10.026-6.134 16.237-6.348l0.044-0.001c7.582 0 14.369 3.406 18.914 8.77l0.030 0.036c3.608 4.237 5.802 9.773 5.802 15.822 0 7.937-3.778 14.991-9.634 19.463l-0.059 0.043zM759.501 542.31c-40.59 32.911-92.873 52.838-149.811 52.838v0c-78.208-0.017-147.965-36.187-193.47-92.705l-0.373-0.479c-35.052-42.984-56.287-98.441-56.287-158.858 0-7.449 0.323-14.823 0.955-22.108l-0.066 0.946c5.668-66.43 38.131-124.321 86.398-163.497l0.437-0.343c40.59-32.911 92.873-52.838 149.811-52.838v0c0.010 0 0.022 0 0.033 0 78.211 0 147.985 36.128 193.541 92.606l0.371 0.475c85.606 107.315 71.782 260.813-31.539 343.962zM603.341 157.491c-106.491 0-192.819 86.328-192.819 192.819s86.328 192.819 192.819 192.819c106.491 0 192.819-86.328 192.819-192.819v0c0-106.491-86.328-192.819-192.819-192.819v0z" />
<glyph unicode="&#xe93c;" glyph-name="My-Assets" horiz-adv-x="1023" d="M42.598 107.11h768c42.701 0 42.701 0 42.701 42.701v768c-0.41 42.189-0.41 42.189-43.11 42.189h-768c-42.189 0-42.189 0-42.189-42.598v-768c0-42.291 0-42.291 42.598-42.291zM213.197-63.386h768c42.598 0 42.598 0 42.598 42.598v768c0 42.598 0 42.598-42.598 42.598h-43.11v-768h-767.488v-42.701c0-42.496 0-42.496 42.598-42.496zM275.456 319.488c-8.499-5.939-14.438-0.819-11.059 9.421l46.080 169.677-131.379 103.014c-8.499 5.12-6.861 13.619 4.301 14.541l168.858 18.022 66.458 161.28c3.482 9.318 11.981 9.318 15.36 0l66.56-161.28 168.858-17.818c11.059-0.922 12.8-9.421 4.301-14.541l-131.072-103.219 37.478-170.598c2.56-9.318-3.379-14.438-12.698-8.499l-141.107 93.798z" />
<glyph unicode="&#xe93d;" glyph-name="Rejected" d="M510.669 527.36l80.794 80.794c10.325 10.325 24.59 16.712 40.346 16.712 31.512 0 57.057-25.545 57.057-57.057 0-15.756-6.386-30.020-16.712-40.346v0l-80.794-80.794 80.794-80.589c9.747-10.215 15.746-24.081 15.746-39.348 0-31.501-25.536-57.037-57.037-57.037-15.293 0-29.179 6.018-39.421 15.816l0.021-0.020-80.794 80.589-80.589-80.794c-10.338-10.338-24.621-16.733-40.397-16.733-31.552 0-57.13 25.578-57.13 57.13 0 15.776 6.394 30.058 16.733 40.397v0l80.794 80.589-80.794 80.794c-10.317 10.329-16.697 24.592-16.697 40.346 0 31.532 25.562 57.094 57.094 57.094 15.779 0 30.062-6.401 40.396-16.747l0.001-0.001zM510.669-66.56c-283.505 0-513.331 229.826-513.331 513.331s229.826 513.331 513.331 513.331c283.505 0 513.331-229.826 513.331-513.331 0-0.036 0-0.072 0-0.108v0.005c0-283.448-229.78-513.229-513.229-513.229-0.036 0-0.072 0-0.108 0h0.005zM510.669 47.514c220.56 0 399.36 178.8 399.36 399.36s-178.8 399.36-399.36 399.36c-220.56 0-399.36-178.8-399.36-399.36v0c0-220.56 178.8-399.36 399.36-399.36v0z" />
<glyph unicode="&#xe93e;" glyph-name="Require-Rectification" d="M956.006 828.723l-432.026 131.277-431.821-131.277s-155.341-737.587 431.821-892.723c587.162 155.136 432.026 892.723 432.026 892.723zM294.502 212.48v74.138l37.274-37.274 36.864-37.376zM427.622 239.002l-106.496 105.882 292.045 292.147 106.189-106.291zM772.506 583.885l-26.522-26.522-106.291 105.677 26.624 26.522c13.508 13.599 32.218 22.016 52.894 22.016 0.052 0 0.105 0 0.157 0h-0.008c41.465-0.060 75.056-33.688 75.056-75.162 0-20.704-8.371-39.452-21.913-53.046l0.002 0.002z" />
<glyph unicode="&#xe93f;" glyph-name="Retired" horiz-adv-x="1023" d="M510.464 769.741h-81.92v-245.35h-157.389v-81.92h239.309v327.27zM919.962 418.918c4.164 23.334 6.545 50.195 6.545 77.613 0 228.54-165.419 418.445-383.058 456.513l-2.777 0.402c-23.126 4.17-49.744 6.554-76.919 6.554-0.138 0-0.277 0-0.415 0h0.022c-253.039-3.881-456.675-209.916-456.675-463.514s203.636-459.633 456.311-463.509l0.364-0.004c27.479 0.035 54.376 2.417 80.532 6.957l-2.811-0.404c49.878-64.217 127.106-105.144 213.892-105.144 149.189 0 270.131 120.942 270.131 270.131 0 86.787-40.927 164.014-104.533 213.436l-0.611 0.457zM463.36 117.555c-209.25 0-378.88 169.63-378.88 378.88s169.63 378.88 378.88 378.88c209.25 0 378.88-169.63 378.88-378.88v0c0-11.469-0.614-22.835-1.741-34.202-26.063 9.213-56.119 14.536-87.419 14.536-149.189 0-270.131-120.942-270.131-270.131 0-31.271 5.314-61.301 15.087-89.237l-0.577 1.894c-11.264-1.126-22.733-1.741-34.099-1.741zM753.050 20.787c-102.589 0-185.754 83.165-185.754 185.754s83.165 185.754 185.754 185.754c102.589 0 185.754-83.165 185.754-185.754v0c0-102.589-83.165-185.754-185.754-185.754v0zM704.819 341.914h81.92v-192h-81.92v192zM704.819 126.874h81.92v-58.88h-81.92v58.88z" />
<glyph unicode="&#xe940;" glyph-name="Saved" d="M507.802 961.741c-283.505 0-513.331-229.826-513.331-513.331s229.826-513.331 513.331-513.331c283.361 0 513.098 229.593 513.331 512.899v0.022c0 0.122 0 0.266 0 0.41 0 283.505-229.826 513.331-513.331 513.331v0zM507.802 49.152c-220.56 0-399.36 178.8-399.36 399.36s178.8 399.36 399.36 399.36c220.56 0 399.36-178.8 399.36-399.36v0c0-0.152 0-0.332 0-0.512 0-220.56-178.8-399.36-399.36-399.36v0zM485.581 609.587c-21.025 21.375-50.259 34.62-82.586 34.62s-61.561-13.245-82.57-34.604l-0.015-0.016-3.686-3.789c-23.898-24.377-38.648-57.801-38.648-94.669s14.749-70.291 38.67-94.691l-0.022 0.022 140.902-142.541c12.789-12.996 30.568-21.049 50.227-21.049s37.438 8.053 50.218 21.039l0.009 0.009 140.902 143.36c23.875 24.388 38.607 57.808 38.607 94.669s-14.732 70.281-38.63 94.693l0.023-0.024-3.686 3.789c-21.013 21.4-50.251 34.663-82.586 34.663s-61.573-13.263-82.569-34.646l2.85 2.85c-6.409-6.488-15.305-10.507-25.139-10.507s-18.731 4.019-25.136 10.503l-0.004 0.004z" />
<glyph unicode="&#xe941;" glyph-name="Share" horiz-adv-x="1023" d="M839.68 230.912c-4.096 3.072-8.192 5.12-12.288 8.192-3.072 2.048-6.144 4.096-9.216 6.144l-3.072 2.048c-22.528 12.288-49.152 18.432-76.8 18.432-33.792 0-66.56-10.24-94.208-28.672l-145.408 83.968c-87.040 50.176-125.952 73.728-142.336 83.968 1.024 1.024 1.024 2.048 1.024 3.072 5.12 27.648 5.12 56.32-1.024 81.92 26.624 14.336 80.896 47.104 144.384 81.92l145.408 83.968c49.152-32.768 113.664-37.888 166.912-11.264 32.768 17.408 58.368 43.008 73.728 73.728 12.288 22.528 18.432 49.152 18.432 76.8 0 65.536-35.84 122.88-93.184 149.504-80.896 40.96-181.248 6.144-223.232-76.8l-12.288-28.672-1.024-3.072c-5.12-26.624-6.144-53.248 0-79.872l-145.408-82.944-145.408-87.040c-49.152 31.744-111.616 35.84-163.84 9.216-32.768-16.384-58.368-40.96-74.752-74.752-23.552-48.128-24.576-102.4-2.048-148.48 16.384-32.768 41.984-57.344 73.728-73.728 22.528-12.288 49.152-18.432 76.8-18.432 31.744 0 63.488 9.216 90.112 25.6l142.336-81.92c69.632-39.936 126.976-72.704 149.504-86.016-6.144-26.624-6.144-54.272 0-81.92 14.336-58.368 59.392-105.472 117.76-121.856l2.048-1.024h3.072c9.216-1.024 19.456-1.024 29.696-1.024 16.384 0 33.792 1.024 51.2 5.12h1.024c33.792 10.24 65.536 30.72 88.064 57.344l1.024 1.024c56.32 72.704 43.008 178.176-30.72 235.52zM831.488 25.088c-16.384-19.456-38.912-33.792-63.488-40.96-16.384-4.096-35.84-5.12-63.488-3.072-38.912 12.288-70.656 46.080-79.872 86.016-4.096 19.456-4.096 40.96 0 60.416l6.144 28.672-13.312 13.312c-4.096 4.096-60.416 36.864-165.888 97.28l-169.984 98.304-19.456-14.336c-18.432-13.312-44.032-20.48-67.584-20.48-19.456 0-37.888 4.096-54.272 13.312-23.552 11.264-40.96 28.672-52.224 52.224-16.384 32.768-15.36 70.656 2.048 103.424 12.288 24.576 29.696 40.96 53.248 53.248 37.888 19.456 82.944 16.384 117.76-8.192l22.528-13.312 171.008 99.328 173.056 99.328v14.336c0 9.216-2.048 16.384-4.096 22.528-4.096 18.432-4.096 38.912 0 57.344l9.216 23.552c29.696 58.368 100.352 81.92 159.744 52.224 40.96-19.456 65.536-59.392 65.536-105.472 0-19.456-4.096-37.888-13.312-54.272-11.264-22.528-29.696-40.96-53.248-53.248-37.888-18.432-83.968-14.336-119.808 10.24l-21.504 17.408-173.056-100.352c-88.064-49.152-160.768-92.16-161.792-92.16l-12.288-7.168v-14.336c0-8.192 3.072-16.384 5.12-20.48 5.12-19.456 6.144-40.96 1.024-62.464-1.024-3.072-2.048-6.144-3.072-9.216-2.048-3.072-3.072-7.168-3.072-12.288 0-17.408 0-18.432 171.008-116.736l174.080-100.352 21.504 17.408c20.48 14.336 43.008 21.504 68.608 21.504 18.432 0 36.864-4.096 52.224-12.288 3.072-3.072 7.168-5.12 10.24-7.168s5.12-4.096 8.192-6.144c52.224-39.936 62.464-114.688 22.528-166.912zM809.984 795.136c0-37.326-30.258-67.584-67.584-67.584s-67.584 30.258-67.584 67.584c0 37.326 30.258 67.584 67.584 67.584s67.584-30.258 67.584-67.584zM259.072 445.952c0-37.326-30.258-67.584-67.584-67.584s-67.584 30.258-67.584 67.584c0 37.326 30.258 67.584 67.584 67.584s67.584-30.258 67.584-67.584zM809.984 99.84c0-37.326-30.258-67.584-67.584-67.584s-67.584 30.258-67.584 67.584c0 37.326 30.258 67.584 67.584 67.584s67.584-30.258 67.584-67.584z" />
<glyph unicode="&#xe942;" glyph-name="Top-Requested-Assets" d="M709.325 279.45v-45.261h-490.496c-0.232 0.003-0.506 0.005-0.78 0.005-13.088 0-25.171-4.308-34.906-11.583l0.153 0.109-115.405-89.907v697.446h641.434v-205.824l67.891 76.493v139.059c0 0 0 0.001 0 0.001 0 32.241-26.049 58.398-58.249 58.572h-660.804c-0.062 0-0.135 0-0.208 0-32.010 0-57.958-25.949-57.958-57.958 0-0.216 0.001-0.432 0.004-0.648v0.033-725.504c-0.001-0.143-0.002-0.313-0.002-0.483 0-22.758 13.025-42.474 32.027-52.1l0.333-0.153c7.474-4.048 16.347-6.464 25.777-6.553h0.028c13.406 0.31 25.726 4.715 35.822 12.007l-0.187-0.129 125.030 99.226h500.122c32.051 0.23 57.978 26.121 58.265 58.136v119.733l-43.11-48.538c-6.791-6.989-15.066-12.499-24.319-16.025l-0.462-0.155zM198.349 666.419h379.392c0.123-0.002 0.267-0.002 0.412-0.002 18.832 0 34.099 15.267 34.099 34.099 0 0.145-0.001 0.29-0.003 0.434v-0.022c-0.115 19.012-15.497 34.393-34.498 34.509h-378.891c-0.091 0.001-0.2 0.001-0.308 0.001-19.1 0-34.598-15.426-34.713-34.499v-0.011c0.552-18.832 15.676-33.957 34.457-34.508l0.052-0.001zM612.25 537.088c-0.115 19.012-15.497 34.393-34.498 34.509h-378.891c-0.091 0.001-0.2 0.001-0.308 0.001-19.1 0-34.598-15.426-34.713-34.499v-0.011c-0.002-0.153-0.004-0.335-0.004-0.516 0-18.776 15.221-33.997 33.997-33.997 0.181 0 0.362 0.001 0.543 0.004h379.365c0.153-0.002 0.335-0.004 0.516-0.004 18.776 0 33.997 15.221 33.997 33.997 0 0.181-0.001 0.362-0.004 0.543v-0.027zM164.966 373.248c-0.002-0.153-0.004-0.334-0.004-0.515 0-18.776 15.221-33.997 33.997-33.997 0.145 0 0.291 0.001 0.435 0.003h327.658l11.878 68.301h-340.582c-18.45-0.057-33.384-15.027-33.384-33.485 0-0.108 0.001-0.216 0.002-0.324v0.016zM650.971 478.358l202.168 225.557 96.308-86.321-202.168-225.557-96.308 86.321zM1017.549 722.534l-66.765 60.314c-3.37 3.201-7.938 5.17-12.965 5.17-5.531 0-10.505-2.383-13.952-6.179l-0.014-0.016-39.936-45.363 95.949-86.221 39.936 45.261c2.536 3.371 4.062 7.629 4.062 12.242 0 5.811-2.42 11.057-6.308 14.784l-0.007 0.007zM602.624 303.206l81.92 23.654c3.348 1.263 6.213 3.107 8.608 5.433l-0.006-0.006 23.654 25.805-95.846 86.323-23.757-25.907c-2.227-2.666-3.762-5.981-4.288-9.623l-0.012-0.105-14.029-83.661c-0.194-1.024-0.305-2.202-0.305-3.406 0-10.576 8.573-19.149 19.149-19.149 1.747 0 3.439 0.234 5.048 0.672l-0.134-0.031z" />
<glyph unicode="&#xe943;" glyph-name="Top-Viewed-Assets" horiz-adv-x="1023" d="M633.037 446.054c0-67.016-54.328-121.344-121.344-121.344s-121.344 54.328-121.344 121.344c0 67.016 54.328 121.344 121.344 121.344s121.344-54.328 121.344-121.344zM517.632 714.24c-320.717 2.458-501.555-242.79-517.632-265.626 15.258-22.118 195.994-269.107 517.632-265.626 313.958 3.379 488.858 242.688 505.754 266.24-16.896 24.781-192.614 261.53-505.754 265.011zM512 234.701c-0.091 0-0.199 0-0.307 0-116.727 0-211.354 94.626-211.354 211.354s94.626 211.354 211.354 211.354c116.727 0 211.353-94.626 211.354-211.353v0c0 0 0 0 0 0 0-116.619-94.451-211.178-211.030-211.353h-0.017z" />
</font>
</defs>
</svg>
